<svg xmlns="http://www.w3.org/2000/svg" xmlns:xlink="http://www.w3.org/1999/xlink" width="67.465" height="55.227" viewBox="0 0 67.465 55.227">
  <defs>
    <clipPath id="clip-path">
      <path id="Path_337" data-name="Path 337" d="M110.946,64.459S96.254,58.8,94.553,58.8s-16.392,5.659-16.392,5.659S73.505,91.7,94.47,96.241h.167C115.6,91.7,110.946,64.459,110.946,64.459Z" transform="translate(-77.72 -58.8)"/>
    </clipPath>
  </defs>
  <g id="Group_189" data-name="Group 189" transform="translate(609 -952.731)">
    <g id="Vrstva_1_00000158008034905307082740000004997132054643933102_" transform="translate(-609 952.731)" style="mix-blend-mode: luminosity;isolation: isolate">
      <g id="Group_183" data-name="Group 183" transform="translate(16.928)">
        <g id="Group_182" data-name="Group 182" clip-path="url(#clip-path)">
          <path id="Path_271" data-name="Path 271" d="M176.169,67.163,161.7,58.8h14.469Z" transform="translate(-138.288 -58.8)" fill="#46c291"/>
          <path id="Path_272" data-name="Path 272" d="M173.428,67.777,157.9,58.8h1.059l14.469,8.363Z" transform="translate(-135.547 -58.8)" fill="#46c291"/>
          <path id="Path_273" data-name="Path 273" d="M170.688,68.362,154.1,58.8h1.059l15.528,8.977Z" transform="translate(-132.807 -58.8)" fill="#45c290"/>
          <path id="Path_274" data-name="Path 274" d="M167.947,68.976,150.3,58.8h1.059l16.588,9.562Z" transform="translate(-130.066 -58.8)" fill="#44c190"/>
          <path id="Path_275" data-name="Path 275" d="M165.278,69.589,146.6,58.8h1.031l17.647,10.176Z" transform="translate(-127.398 -58.8)" fill="#43c18f"/>
          <path id="Path_276" data-name="Path 276" d="M162.538,70.2,142.8,58.8h1.059l18.678,10.789Z" transform="translate(-124.657 -58.8)" fill="#42c18f"/>
          <path id="Path_277" data-name="Path 277" d="M159.8,70.816,139,58.8h1.059L159.8,70.2Z" transform="translate(-121.916 -58.8)" fill="#41c18e"/>
          <path id="Path_278" data-name="Path 278" d="M157.057,71.4,135.2,58.8h1.059l20.8,12.016Z" transform="translate(-119.176 -58.8)" fill="#40c08d"/>
          <path id="Path_279" data-name="Path 279" d="M154.388,72.014,131.5,58.8h1.031l21.857,12.6Z" transform="translate(-116.507 -58.8)" fill="#3fc08d"/>
          <path id="Path_280" data-name="Path 280" d="M151.647,72.628,127.7,58.8h1.059l22.888,13.214Z" transform="translate(-113.766 -58.8)" fill="#3ec08c"/>
          <path id="Path_281" data-name="Path 281" d="M148.907,73.241,123.9,58.8h1.059l23.947,13.828Z" transform="translate(-111.026 -58.8)" fill="#3dc08c"/>
          <path id="Path_282" data-name="Path 282" d="M146.166,73.826,120.1,58.8h1.059l25.007,14.441Z" transform="translate(-108.285 -58.8)" fill="#3cbf8b"/>
          <path id="Path_283" data-name="Path 283" d="M143.5,74.44,116.4,58.8h1.031L143.5,73.826Z" transform="translate(-105.617 -58.8)" fill="#3bbf8a"/>
          <path id="Path_284" data-name="Path 284" d="M140.757,75.053,112.6,58.8h1.059l27.1,15.64Z" transform="translate(-102.876 -58.8)" fill="#3abf8a"/>
          <path id="Path_285" data-name="Path 285" d="M138.016,75.666,108.8,58.8h1.059l28.157,16.253Z" transform="translate(-100.136 -58.8)" fill="#39bf89"/>
          <path id="Path_286" data-name="Path 286" d="M135.348,76.28,105.1,58.8h1.032l29.216,16.866Z" transform="translate(-97.467 -58.8)" fill="#38be89"/>
          <path id="Path_287" data-name="Path 287" d="M132.607,76.865,101.3,58.8h1.059l30.248,17.48Z" transform="translate(-94.726 -58.8)" fill="#37be88"/>
          <path id="Path_288" data-name="Path 288" d="M129.867,77.478,97.5,58.8h1.059l31.307,18.065Z" transform="translate(-91.986 -58.8)" fill="#36be87"/>
          <path id="Path_289" data-name="Path 289" d="M127.126,78.092,93.7,58.8h1.059l32.367,18.678Z" transform="translate(-89.245 -58.8)" fill="#35be87"/>
          <path id="Path_290" data-name="Path 290" d="M124.53,78.705,90.1,58.828V58.8h1L124.53,78.092Z" transform="translate(-86.649 -58.8)" fill="#34bd86"/>
          <path id="Path_291" data-name="Path 291" d="M123.881,79.391,89.2,59.346l.251-.446,34.43,19.877Z" transform="translate(-86 -58.872)" fill="#33bd86"/>
          <path id="Path_292" data-name="Path 292" d="M123.159,81.13,88.2,60.946l.279-.446,34.681,20.045Z" transform="translate(-85.278 -60.026)" fill="#32bd85"/>
          <path id="Path_293" data-name="Path 293" d="M122.51,82.9,87.3,62.574l.251-.474L122.51,82.284Z" transform="translate(-84.629 -61.18)" fill="#31bd85"/>
          <path id="Path_294" data-name="Path 294" d="M121.789,84.737,86.3,64.246l.279-.446,35.21,20.323Z" transform="translate(-83.908 -62.406)" fill="#30bc84"/>
          <path id="Path_295" data-name="Path 295" d="M121.14,86.5,85.4,65.846l.251-.446L121.14,85.891Z" transform="translate(-83.259 -63.56)" fill="#2fbc83"/>
          <path id="Path_296" data-name="Path 296" d="M120.419,88.243,84.4,67.474,84.679,67l35.74,20.658Z" transform="translate(-82.538 -64.714)" fill="#2ebc83"/>
          <path id="Path_297" data-name="Path 297" d="M119.77,90.083,83.5,69.146l.251-.446L119.77,89.469Z" transform="translate(-81.889 -65.94)" fill="#2dbb82"/>
          <path id="Path_298" data-name="Path 298" d="M119.048,91.85,82.5,70.746l.279-.446,36.27,20.937Z" transform="translate(-81.168 -67.094)" fill="#2cbb82"/>
          <path id="Path_299" data-name="Path 299" d="M118.4,93.617,81.6,72.374l.251-.474L118.4,93Z" transform="translate(-80.518 -68.248)" fill="#2bbb81"/>
          <path id="Path_300" data-name="Path 300" d="M117.75,95.457,80.7,74.046l.251-.446,36.8,21.243Z" transform="translate(-79.869 -69.474)" fill="#2abb80"/>
          <path id="Path_301" data-name="Path 301" d="M117.029,97.2,79.7,75.646l.279-.446,37.05,21.411Z" transform="translate(-79.148 -70.628)" fill="#29ba80"/>
          <path id="Path_302" data-name="Path 302" d="M116.38,98.963,78.8,77.274l.251-.474L116.38,98.35Z" transform="translate(-78.499 -71.782)" fill="#28ba7f"/>
          <path id="Path_303" data-name="Path 303" d="M115.659,100.8,77.8,78.946l.279-.446,37.58,21.689Z" transform="translate(-77.778 -73.008)" fill="#27ba7f"/>
          <path id="Path_304" data-name="Path 304" d="M115.01,102.57,76.9,80.546l.251-.446,37.859,21.857Z" transform="translate(-77.129 -74.162)" fill="#26ba7e"/>
          <path id="Path_305" data-name="Path 305" d="M114.288,104.337,75.9,82.174l.279-.474,38.11,22.024Z" transform="translate(-76.407 -75.316)" fill="#25b97d"/>
          <path id="Path_306" data-name="Path 306" d="M113.639,106.149,75,83.846l.251-.446,38.388,22.163Z" transform="translate(-75.758 -76.542)" fill="#24b97d"/>
          <path id="Path_307" data-name="Path 307" d="M112.99,107.916,74.1,85.446,74.351,85l38.639,22.3Z" transform="translate(-75.109 -77.696)" fill="#22b97c"/>
          <path id="Path_308" data-name="Path 308" d="M112.269,109.683,73.1,87.074l.279-.474,38.89,22.47Z" transform="translate(-74.388 -78.85)" fill="#21b97c"/>
          <path id="Path_309" data-name="Path 309" d="M111.62,111.523,72.2,88.746l.251-.446,39.169,22.609Z" transform="translate(-73.739 -80.076)" fill="#20b87b"/>
          <path id="Path_310" data-name="Path 310" d="M110.9,113.262,71.2,90.346l.279-.446,39.42,22.777Z" transform="translate(-73.018 -81.23)" fill="#1fb87a"/>
          <path id="Path_311" data-name="Path 311" d="M110.25,115.029,70.3,91.974l.251-.474,39.7,22.916Z" transform="translate(-72.369 -82.384)" fill="#1eb87a"/>
          <path id="Path_312" data-name="Path 312" d="M109.528,116.869,69.3,93.646l.279-.446,39.95,23.055Z" transform="translate(-71.647 -83.61)" fill="#1db879"/>
          <path id="Path_313" data-name="Path 313" d="M108.879,118.106l-.223.39L68.4,95.246l.251-.446,40.228,23.223Z" transform="translate(-70.998 -84.764)" fill="#1cb779"/>
          <rect id="Rectangle_134" data-name="Rectangle 134" width="0.53" height="46.473" transform="matrix(0.5, -0.866, 0.866, 0.5, -2.856, 10.948)" fill="#1bb778"/>
          <rect id="Rectangle_135" data-name="Rectangle 135" width="0.53" height="46.473" transform="matrix(0.5, -0.866, 0.866, 0.5, -3.134, 11.413)" fill="#1ab777"/>
          <rect id="Rectangle_136" data-name="Rectangle 136" width="0.53" height="46.473" transform="matrix(0.5, -0.866, 0.866, 0.5, -3.376, 11.867)" fill="#19b777"/>
          <rect id="Rectangle_137" data-name="Rectangle 137" width="0.53" height="46.473" transform="matrix(0.5, -0.866, 0.866, 0.5, -3.654, 12.331)" fill="#18b676"/>
          <rect id="Rectangle_138" data-name="Rectangle 138" width="0.53" height="46.473" transform="matrix(0.5, -0.866, 0.866, 0.5, -3.92, 12.771)" fill="#17b676"/>
          <rect id="Rectangle_139" data-name="Rectangle 139" width="0.53" height="46.473" transform="matrix(0.5, -0.866, 0.866, 0.5, -4.184, 13.212)" fill="#16b675"/>
          <path id="Path_314" data-name="Path 314" d="M102.884,129.451l-.251.446L62.6,106.785v-.5l.028-.084Z" transform="translate(-66.815 -92.986)" fill="#15b574"/>
          <path id="Path_315" data-name="Path 315" d="M102.633,131.411l-.279.474L62.6,108.913V108.3Z" transform="translate(-66.815 -94.5)" fill="#14b574"/>
          <path id="Path_316" data-name="Path 316" d="M102.354,133.472l-.028.056h-.892L62.6,111.113V110.5Z" transform="translate(-66.815 -96.087)" fill="#13b573"/>
          <path id="Path_317" data-name="Path 317" d="M100.375,135.114,62.6,113.313V112.7l38.834,22.414Z" transform="translate(-66.815 -97.674)" fill="#12b573"/>
          <path id="Path_318" data-name="Path 318" d="M99.316,136.7,62.6,115.485V114.9l37.775,21.8Z" transform="translate(-66.815 -99.26)" fill="#11b472"/>
          <path id="Path_319" data-name="Path 319" d="M98.284,138.215,62.6,117.613V117l36.716,21.215Z" transform="translate(-66.815 -100.775)" fill="#10b472"/>
          <path id="Path_320" data-name="Path 320" d="M97.225,139.8,62.6,119.813V119.2l35.684,20.6Z" transform="translate(-66.815 -102.361)" fill="#0fb471"/>
          <path id="Path_321" data-name="Path 321" d="M96.165,141.389,62.6,122.013V121.4l34.625,19.989Z" transform="translate(-66.815 -103.948)" fill="#0eb470"/>
          <path id="Path_322" data-name="Path 322" d="M95.106,142.975,62.6,124.213V123.6l33.565,19.375Z" transform="translate(-66.815 -105.535)" fill="#0db370"/>
          <path id="Path_323" data-name="Path 323" d="M94.075,144.562,62.6,126.385V125.8l32.506,18.762Z" transform="translate(-66.815 -107.122)" fill="#0cb36f"/>
          <path id="Path_324" data-name="Path 324" d="M93.015,146.077,62.6,128.513V127.9l31.475,18.177Z" transform="translate(-66.815 -108.636)" fill="#0bb36f"/>
          <path id="Path_325" data-name="Path 325" d="M91.956,147.663,62.6,130.713V130.1l30.415,17.563Z" transform="translate(-66.815 -110.223)" fill="#0ab36e"/>
          <path id="Path_326" data-name="Path 326" d="M90.9,149.25,62.6,132.913V132.3l29.356,16.95Z" transform="translate(-66.815 -111.809)" fill="#09b26d"/>
          <path id="Path_327" data-name="Path 327" d="M89.865,150.837,62.6,135.113V134.5l28.3,16.337Z" transform="translate(-66.815 -113.396)" fill="#08b26d"/>
          <path id="Path_328" data-name="Path 328" d="M88.806,152.423,62.6,137.285V136.7l27.265,15.723Z" transform="translate(-66.815 -114.983)" fill="#07b26c"/>
          <path id="Path_329" data-name="Path 329" d="M87.746,153.938,62.6,139.413V138.8l26.206,15.138Z" transform="translate(-66.815 -116.497)" fill="#06b26c"/>
          <path id="Path_330" data-name="Path 330" d="M86.687,155.525,62.6,141.613V141l25.146,14.525Z" transform="translate(-66.815 -118.084)" fill="#05b16b"/>
          <path id="Path_331" data-name="Path 331" d="M85.655,157.111,62.6,143.813V143.2l24.087,13.911Z" transform="translate(-66.815 -119.671)" fill="#04b16a"/>
          <path id="Path_332" data-name="Path 332" d="M84.6,158.7l-22-12.713V145.4l23.055,13.3Z" transform="translate(-66.815 -121.257)" fill="#03b16a"/>
          <path id="Path_333" data-name="Path 333" d="M83.537,160.213,62.6,148.113V147.5l22,12.713Z" transform="translate(-66.815 -122.772)" fill="#02b169"/>
          <path id="Path_334" data-name="Path 334" d="M82.505,161.8,62.6,150.313V149.7l20.937,12.1Z" transform="translate(-66.815 -124.359)" fill="#01b069"/>
          <path id="Path_335" data-name="Path 335" d="M81.446,163.386,62.6,152.513V151.9l19.905,11.486Z" transform="translate(-66.815 -125.945)" fill="#00b068"/>
          <path id="Path_336" data-name="Path 336" d="M62.6,154.1l18.846,10.873H62.6Z" transform="translate(-66.815 -127.532)" fill="#00b068"/>
        </g>
      </g>
      <path id="Path_338" data-name="Path 338" d="M127.985,99.733a2.064,2.064,0,0,0-.474-1.171,1.32,1.32,0,0,0-1.059-.362c0-.725,0-1.45-.028-2.119a4.772,4.772,0,0,0-4.879-4.684,4.244,4.244,0,0,0-1.171.167,4.67,4.67,0,0,0-3.485,4.572v1.979c-1.366.056-1.589.558-1.589,1.979v7.555c0,1.171.5,1.645,1.645,1.673h9.534a1.359,1.359,0,0,0,1.533-1.533v-1.7C128.012,104.054,128.012,101.879,127.985,99.733Zm-9.228-2.509a4.086,4.086,0,0,1,.585-2.788,2.9,2.9,0,0,1,5.213,1.728V98.2h-5.8C118.785,97.865,118.757,97.53,118.757,97.224Z" transform="translate(-87.896 -82.309)" fill="#fff"/>
      <path id="Path_339" data-name="Path 339" d="M17,230.221c0-2.23,1.087-4.321,3.819-4.321a3.466,3.466,0,0,1,3.541,2.509l-1.756.669a1.767,1.767,0,0,0-1.812-1.561c-1.2,0-1.979.976-1.979,2.648,0,1.728.808,2.732,1.951,2.732a1.978,1.978,0,0,0,1.868-1.589l1.728.7a3.466,3.466,0,0,1-3.541,2.509C18.087,234.542,17,232.479,17,230.221Z" transform="translate(-17 -179.315)" fill="#00b068"/>
      <path id="Path_340" data-name="Path 340" d="M55.1,226.4h5.687v1.645H56.94v1.728h3.568v1.645H56.94v1.728h3.847v1.645H55.1Z" transform="translate(-44.478 -179.676)" fill="#00b068"/>
      <path id="Path_341" data-name="Path 341" d="M88.528,226.4h3.513a2.49,2.49,0,0,1,2.788,2.481,2.307,2.307,0,0,1-1.533,2.258l1.979,3.652H93.128l-1.645-3.4H90.368v3.4H88.5Zm3.568,3.457c.613-.028.976-.362.976-.892a.907.907,0,0,0-1.032-.892H90.4v1.784Z" transform="translate(-68.567 -179.676)" fill="#00b068"/>
      <path id="Path_342" data-name="Path 342" d="M123.209,228.017H120.7V226.4h6.858v1.617h-2.509v6.774h-1.84Z" transform="translate(-91.79 -179.676)" fill="#00b068"/>
      <path id="Path_343" data-name="Path 343" d="M156.9,226.4h1.84v8.391H156.9Z" transform="translate(-117.898 -179.676)" fill="#00b068"/>
      <path id="Path_344" data-name="Path 344" d="M174.3,231.827h1.812c.028.753.7,1.143,1.45,1.143s1.227-.362,1.227-.92c0-.7-.808-.948-1.728-1.255-1.143-.362-2.481-.808-2.481-2.425,0-1.533,1.227-2.37,2.76-2.37a3.468,3.468,0,0,1,2.732,1.282l-1.032,1.115a2.447,2.447,0,0,0-1.756-.864c-.53,0-.948.279-.948.669,0,.53.669.753,1.505,1.032,1.2.39,2.676.92,2.676,2.7,0,1.645-1.227,2.676-3.039,2.676A2.97,2.97,0,0,1,174.3,231.827Z" transform="translate(-130.447 -179.387)" fill="#00b068"/>
      <path id="Path_345" data-name="Path 345" d="M205.29,231.5,202,226.4h2.091l2.147,3.6,2.063-3.6h2.091l-3.29,5.13v3.262H205.29Z" transform="translate(-150.425 -179.676)" fill="#00b068"/>
      <path id="Path_346" data-name="Path 346" d="M236.7,231.827h1.812c.028.753.7,1.143,1.45,1.143s1.227-.362,1.227-.92c0-.7-.809-.948-1.728-1.255-1.143-.362-2.481-.808-2.481-2.425,0-1.533,1.227-2.37,2.76-2.37a3.468,3.468,0,0,1,2.732,1.282l-1.031,1.115a2.447,2.447,0,0,0-1.756-.864c-.53,0-.948.279-.948.669,0,.53.669.753,1.505,1.032,1.2.39,2.676.92,2.676,2.7,0,1.645-1.255,2.676-3.039,2.676A2.953,2.953,0,0,1,236.7,231.827Z" transform="translate(-175.451 -179.387)" fill="#00b068"/>
    </g>
  </g>
</svg>
