<svg xmlns="http://www.w3.org/2000/svg" xmlns:xlink="http://www.w3.org/1999/xlink" width="56.538" height="56.538" viewBox="0 0 56.538 56.538">
  <defs>
    <clipPath id="clip-path">
      <rect id="Rectangle_142" data-name="Rectangle 142" width="56.538" height="56.538" fill="none"/>
    </clipPath>
  </defs>
  <g id="Group_190" data-name="Group 190" transform="translate(0 0)" opacity="0.8" style="mix-blend-mode: luminosity;isolation: isolate">
    <rect id="Rectangle_140" data-name="Rectangle 140" width="27.72" height="56.537" transform="translate(0 0.001)" fill="#161615"/>
    <rect id="Rectangle_141" data-name="Rectangle 141" width="27.719" height="56.538" transform="translate(28.819 0)" fill="#161615"/>
    <g id="Group_191" data-name="Group 191" transform="translate(0 0)">
      <g id="Group_190-2" data-name="Group 190" clip-path="url(#clip-path)">
        <path id="Path_347" data-name="Path 347" d="M10.631,7.441a2.842,2.842,0,0,0-1.945-.584A9.063,9.063,0,0,0,7.015,7l-.1.019V13.8h1.1V11.158a3.8,3.8,0,0,0,.568.039,2.917,2.917,0,0,0,2.12-.767,2.112,2.112,0,0,0,.557-1.507,1.916,1.916,0,0,0-.633-1.482M8.607,10.26a2.992,2.992,0,0,1-.588-.049V7.834a4.486,4.486,0,0,1,.685-.05c.54,0,1.446.155,1.446,1.19,0,.818-.562,1.287-1.543,1.287" transform="translate(-1.398 -1.386)" fill="#fff"/>
        <path id="Path_348" data-name="Path 348" d="M19.515,11.826a1.915,1.915,0,0,0-.862-1.327,1.851,1.851,0,0,0,1.141-1.7,1.78,1.78,0,0,0-.565-1.354,2.865,2.865,0,0,0-2.014-.584,9.029,9.029,0,0,0-1.671.151l-.1.02V13.8h1.1V10.921h.685c.7,0,1.034.324,1.221,1.2a7.723,7.723,0,0,0,.448,1.624l.035.061H20.1l-.09-.178a12.513,12.513,0,0,1-.492-1.8m-.836-2.942c0,.692-.54,1.139-1.375,1.139h-.755V7.83a3.9,3.9,0,0,1,.724-.055c.642,0,1.406.193,1.406,1.11" transform="translate(-3.123 -1.386)" fill="#fff"/>
        <path id="Path_349" data-name="Path 349" d="M26.228,6.917l-2.342,6.9h1.148l.691-2.092h2.18l.71,2.092h1.178l-2.354-6.9ZM27.643,10.8H25.986c.092-.273.6-1.761.6-1.761.093-.273.154-.547.222-.822.064.228.235.832.235.832s.45,1.3.6,1.75" transform="translate(-4.829 -1.398)" fill="#fff"/>
        <path id="Path_350" data-name="Path 350" d="M41.176,10.7h2.97v3.117H45.26v-6.9H44.146V9.7h-2.97V6.917H40.062v6.9h1.114Z" transform="translate(-8.1 -1.398)" fill="#fff"/>
        <path id="Path_351" data-name="Path 351" d="M52.212,6.917l-2.344,6.9h1.149s.64-1.935.691-2.092h2.18l.711,2.092h1.178l-2.353-6.9ZM53.626,10.8H51.969c.092-.273.6-1.761.6-1.761.094-.275.154-.549.222-.823.065.234.235.833.235.833s.45,1.3.6,1.75" transform="translate(-10.083 -1.398)" fill="#fff"/>
        <path id="Path_352" data-name="Path 352" d="M10.631,23a2.85,2.85,0,0,0-1.945-.583,8.99,8.99,0,0,0-1.671.141l-.1.019v6.785h1.1V26.717a3.691,3.691,0,0,0,.568.041,2.924,2.924,0,0,0,2.12-.767,2.113,2.113,0,0,0,.557-1.507A1.922,1.922,0,0,0,10.631,23M8.607,25.821a2.975,2.975,0,0,1-.588-.051V23.394a4.409,4.409,0,0,1,.685-.049c.54,0,1.446.154,1.446,1.188,0,.819-.562,1.288-1.543,1.288" transform="translate(-1.398 -4.532)" fill="#fff"/>
        <path id="Path_353" data-name="Path 353" d="M19.515,27.386a1.915,1.915,0,0,0-.862-1.325,1.854,1.854,0,0,0,1.14-1.7A1.787,1.787,0,0,0,19.229,23a2.872,2.872,0,0,0-2.014-.583,9.1,9.1,0,0,0-1.671.15l-.1.021v6.774h1.1v-2.88h.685c.7,0,1.034.324,1.221,1.194A7.707,7.707,0,0,0,18.9,29.3l.035.062H20.1l-.09-.18a12.428,12.428,0,0,1-.492-1.8m-.836-2.941c0,.693-.54,1.139-1.375,1.139h-.755V23.391a3.97,3.97,0,0,1,.724-.055c.642,0,1.406.192,1.406,1.11" transform="translate(-3.123 -4.532)" fill="#fff"/>
        <path id="Path_354" data-name="Path 354" d="M26.228,22.478l-2.342,6.895h1.148l.691-2.092h2.18l.71,2.092h1.178L27.44,22.478Zm1.415,3.886H25.986c.092-.273.6-1.761.6-1.761.092-.27.154-.547.222-.821.064.225.235.831.235.831s.45,1.3.6,1.75" transform="translate(-4.829 -4.544)" fill="#fff"/>
        <path id="Path_355" data-name="Path 355" d="M42.831,26.554h1.341v1.774a3,3,0,0,1-1.021.14,2.323,2.323,0,0,1-2.441-2.56,2.365,2.365,0,0,1,2.549-2.55,3.236,3.236,0,0,1,1.418.274l.13.061.29-.937L45,22.709a4.3,4.3,0,0,0-1.722-.318,3.448,3.448,0,0,0-3.723,3.556,3.244,3.244,0,0,0,3.537,3.478,6.147,6.147,0,0,0,2.1-.373l.08-.031v-3.4H42.831Z" transform="translate(-7.998 -4.527)" fill="#fff"/>
        <path id="Path_356" data-name="Path 356" d="M50.419,22.473v4.04c0,1.911.891,2.963,2.51,2.963,1.677,0,2.638-1.091,2.638-2.993v-4.01H54.454v4.07c0,1.3-.518,1.987-1.5,1.987-.919,0-1.426-.705-1.426-1.987v-4.07Z" transform="translate(-10.194 -4.543)" fill="#fff"/>
        <path id="Path_357" data-name="Path 357" d="M62.034,28.406V26.255h2.575V25.3H62.034V23.444h2.733v-.966H60.918v6.895h4v-.967Z" transform="translate(-12.317 -4.545)" fill="#fff"/>
        <path id="Path_358" data-name="Path 358" d="M10.631,38.559a2.842,2.842,0,0,0-1.945-.584,8.994,8.994,0,0,0-1.671.14l-.1.02V44.92h1.1V42.276a3.822,3.822,0,0,0,.568.04,2.921,2.921,0,0,0,2.12-.768,2.11,2.11,0,0,0,.557-1.506,1.919,1.919,0,0,0-.633-1.483M8.607,41.378a3,3,0,0,1-.588-.049V38.952A4.463,4.463,0,0,1,8.7,38.9c.54,0,1.446.155,1.446,1.188,0,.819-.562,1.288-1.543,1.288" transform="translate(-1.398 -7.678)" fill="#fff"/>
        <path id="Path_359" data-name="Path 359" d="M19.515,42.943a1.913,1.913,0,0,0-.862-1.325,1.854,1.854,0,0,0,1.141-1.7,1.784,1.784,0,0,0-.565-1.355,2.872,2.872,0,0,0-2.014-.583,9.092,9.092,0,0,0-1.672.15l-.1.022V44.92h1.1V42.039h.685c.7,0,1.034.324,1.221,1.2a7.723,7.723,0,0,0,.448,1.624l.035.061H20.1l-.09-.18a12.428,12.428,0,0,1-.492-1.8M18.679,40c0,.693-.54,1.139-1.375,1.139h-.755V38.948a3.873,3.873,0,0,1,.724-.056c.642,0,1.406.193,1.406,1.111" transform="translate(-3.123 -7.678)" fill="#fff"/>
        <path id="Path_360" data-name="Path 360" d="M26.228,38.035l-2.342,6.9h1.148l.691-2.091h2.18c.053.154.71,2.091.71,2.091h1.178l-2.354-6.9Zm1.415,3.887H25.986c.092-.273.6-1.762.6-1.762.093-.27.154-.547.222-.82.064.227.235.831.235.831s.45,1.3.6,1.75" transform="translate(-4.829 -7.69)" fill="#fff"/>
        <path id="Path_361" data-name="Path 361" d="M42.831,42.112h1.341v1.775a3.078,3.078,0,0,1-1.021.138,2.322,2.322,0,0,1-2.441-2.559,2.365,2.365,0,0,1,2.549-2.55,3.234,3.234,0,0,1,1.418.274l.13.061.29-.938-.1-.046a4.315,4.315,0,0,0-1.721-.317,3.448,3.448,0,0,0-3.723,3.556,3.244,3.244,0,0,0,3.537,3.477,6.119,6.119,0,0,0,2.1-.373l.08-.03v-3.4H42.831Z" transform="translate(-7.998 -7.673)" fill="#fff"/>
        <path id="Path_362" data-name="Path 362" d="M52.191,38.035l-2.343,6.9H51s.638-1.935.691-2.091h2.18c.052.154.709,2.091.709,2.091h1.178l-2.352-6.9ZM53.6,41.922H51.948c.092-.273.6-1.762.6-1.762.09-.265.161-.531.227-.8.068.242.229.811.229.811s.448,1.3.6,1.75" transform="translate(-10.078 -7.69)" fill="#fff"/>
        <path id="Path_363" data-name="Path 363" d="M10.631,54.116a2.843,2.843,0,0,0-1.945-.583,9.094,9.094,0,0,0-1.671.14l-.1.019v6.785h1.1V57.832a3.72,3.72,0,0,0,.568.041,2.921,2.921,0,0,0,2.12-.767,2.113,2.113,0,0,0,.557-1.507,1.919,1.919,0,0,0-.633-1.483m-2.024,2.82a3,3,0,0,1-.588-.049V54.51a4.337,4.337,0,0,1,.685-.05c.54,0,1.446.155,1.446,1.19,0,.818-.562,1.287-1.543,1.287" transform="translate(-1.398 -10.823)" fill="#fff"/>
        <path id="Path_364" data-name="Path 364" d="M19.515,58.5a1.913,1.913,0,0,0-.862-1.326,1.853,1.853,0,0,0,1.141-1.7,1.781,1.781,0,0,0-.565-1.355,2.871,2.871,0,0,0-2.014-.583,8.961,8.961,0,0,0-1.671.151l-.1.02v6.774h1.1V57.6h.685c.7,0,1.034.325,1.221,1.2a7.8,7.8,0,0,0,.448,1.624l.035.062H20.1l-.09-.179a12.513,12.513,0,0,1-.492-1.8m-.836-2.942c0,.693-.54,1.14-1.375,1.14h-.755V54.506a3.97,3.97,0,0,1,.724-.055c.642,0,1.406.193,1.406,1.11" transform="translate(-3.123 -10.823)" fill="#fff"/>
        <path id="Path_365" data-name="Path 365" d="M26.228,53.594l-2.342,6.895h1.148l.691-2.091h2.18c.053.154.71,2.091.71,2.091h1.178L27.44,53.594Zm1.415,3.886H25.986c.092-.273.6-1.761.6-1.761.093-.271.154-.547.222-.822.064.227.235.831.235.831s.45,1.3.6,1.751" transform="translate(-4.829 -10.836)" fill="#fff"/>
        <path id="Path_366" data-name="Path 366" d="M42.831,57.669h1.341v1.774a3.023,3.023,0,0,1-1.021.14,2.322,2.322,0,0,1-2.441-2.559,2.365,2.365,0,0,1,2.549-2.55,3.224,3.224,0,0,1,1.418.274l.13.06.29-.937L45,53.825a4.322,4.322,0,0,0-1.722-.318,3.448,3.448,0,0,0-3.723,3.557,3.244,3.244,0,0,0,3.537,3.476,6.126,6.126,0,0,0,2.1-.373l.08-.031v-3.4H42.831Z" transform="translate(-7.998 -10.818)" fill="#fff"/>
      </g>
    </g>
  </g>
</svg>
