<svg id="_x31_" xmlns="http://www.w3.org/2000/svg" width="78.643" height="39.059" viewBox="0 0 78.643 39.059">
  <g id="logo2" transform="translate(0 0)">
    <path id="Shape" d="M20.61,32.764c0-2.166,1.116-3.085,2.363-3.085a2.634,2.634,0,0,1,.985.2V28.431a3.874,3.874,0,0,0-.919-.131,2.489,2.489,0,0,0-2.363,1.641H20.61v-1.51H19.1v8.6h1.51Z" transform="translate(-10.435 -12.873)" fill="#1d1d1b"/>
    <path id="Shape_00000083783620044719088340000001444087767001454761_" d="M31.836,37a4.275,4.275,0,0,0,3.282-1.379l-1.05-.722a3.017,3.017,0,0,1-2.232.788c-1.772,0-2.495-1.182-2.626-2.626h6.1c0-.2.066-.328.066-.525,0-2.166-.985-4.333-3.742-4.333-2.691,0-3.939,2.1-3.939,4.464S29.013,37,31.836,37Zm-.2-7.484c1.575,0,2.3,1.116,2.3,2.626H29.21C29.275,30.826,29.866,29.513,31.639,29.513Z" transform="translate(-13.389 -12.839)" fill="#1d1d1b"/>
    <path id="Shape_00000115485428990181174830000010649851683024994693_" d="M45.245,35.276a3.218,3.218,0,0,0,2.691-1.247H48v1.05h1.51V23H48v4.6h-.066a3.5,3.5,0,0,0-2.691-1.247c-2.429,0-3.545,1.969-3.545,4.464S42.882,35.276,45.245,35.276Zm.46-7.549c1.444,0,2.363,1.182,2.363,3.085S47.149,33.9,45.7,33.9c-1.641,0-2.429-1.182-2.429-3.085C43.21,28.908,44.063,27.726,45.7,27.726Z" transform="translate(-18.199 -11.053)" fill="#1d1d1b"/>
    <path id="Shape_00000025417185863011229430000011343730191015974058_" d="M78.744,33.293a2,2,0,0,0,2.232,2.3h1.313V34.409h-.853c-.853,0-1.182-.328-1.182-1.379V28.107h2.232V26.991H80.254V24.3h-1.51v1.969c0,.46-.263.722-.788.722H77.3v1.116h1.379Z" transform="translate(-30.43 -11.499)" fill="#1d1d1b"/>
    <path id="Shape_00000132083532702709011790000008125178199956519595_" d="M91.267,31.942c-.788.2-1.707.263-2.495.525A2.133,2.133,0,0,0,87,34.633c0,1.51,1.116,2.429,2.888,2.429a3.169,3.169,0,0,0,2.954-1.575h.066l.2,1.379h1.379l-.2-1.9V30.826c0-1.772-1.575-2.626-3.348-2.626A4.72,4.72,0,0,0,87.2,29.907l1.116.788A3.307,3.307,0,0,1,91,29.447c1.116,0,1.9.46,1.9,1.247C92.908,31.417,92.12,31.745,91.267,31.942Zm1.641.394v.788a2.5,2.5,0,0,1-2.626,2.757c-.985,0-1.707-.46-1.707-1.247a1.261,1.261,0,0,1,.985-1.182c.853-.328,2.363-.394,3.282-1.116Z" transform="translate(-33.762 -12.839)" fill="#1d1d1b"/>
    <path id="Shape_00000158732193061474626950000003942464966638982031_" d="M104.679,36.734a3.1,3.1,0,0,0,2.691-1.313v1.116a2.139,2.139,0,0,1-2.3,2.166,2.669,2.669,0,0,1-2.495-1.379l-1.313.656a4.088,4.088,0,0,0,3.873,1.969c2.3,0,3.807-1.313,3.807-3.414V28.331h-1.51v1.05H107.3a2.624,2.624,0,0,0-2.429-1.182c-2.495,0-3.676,1.838-3.676,4.2S102.382,36.734,104.679,36.734Zm.394-7.287c1.707,0,2.363,1.575,2.363,3.151s-.656,2.888-2.363,2.888-2.429-1.444-2.429-3.085c0-1.575.722-2.954,2.429-2.954Z" transform="translate(-38.64 -12.839)" fill="#1d1d1b"/>
    <path id="Shape_00000110448861770742992980000005042622124629044630_" d="M45.943,4.8H5.9V43.859H84.543V4.8Zm-1.51,37.615H7.344V6.244H44.434Zm38.6,0H45.943V6.244H83.033Z" transform="translate(-5.9 -4.8)" fill="#1d1d1b"/>
  </g>
</svg>
