<svg id="Layer_2" data-name="Layer 2" xmlns="http://www.w3.org/2000/svg" width="45" height="45" viewBox="0 0 45 45">
  <g id="invisible_box" data-name="invisible box">
    <rect id="Rectangle_97" data-name="Rectangle 97" width="45" height="45" fill="rgba(0,0,0,0)"/>
  </g>
  <g id="icons_Q2" data-name="icons Q2" transform="translate(1.863 2.795)">
    <g id="Group_142" data-name="Group 142">
      <path id="Path_256" data-name="Path 256" d="M11.32,27.512V17.632a7.363,7.363,0,0,0,5.312-5.312h9.879a7.456,7.456,0,1,0,0-3.728H16.632A7.456,7.456,0,0,0,9.456,3,7.456,7.456,0,0,0,7.592,17.632v9.879a7.456,7.456,0,1,0,3.728,0ZM33.688,6.728a3.728,3.728,0,1,1-3.728,3.728A3.728,3.728,0,0,1,33.688,6.728ZM5.728,10.456a3.728,3.728,0,1,1,3.728,3.728,3.728,3.728,0,0,1-3.728-3.728Zm3.728,27.96a3.728,3.728,0,1,1,3.728-3.728A3.728,3.728,0,0,1,9.456,38.416Z" transform="translate(-1.999 -2.999)" fill="#0d1e65"/>
      <path id="Path_257" data-name="Path 257" d="M36.912,28.872V24.864a1.864,1.864,0,1,0-3.728,0v4.008a7.363,7.363,0,0,0-5.312,5.312H23.864a1.864,1.864,0,0,0,0,3.728h4.008a7.456,7.456,0,1,0,9.04-9.04Zm-1.864,10.9a3.728,3.728,0,1,1,3.728-3.728A3.728,3.728,0,0,1,35.048,39.776Z" transform="translate(-3.359 -4.359)" fill="#0d1e65"/>
    </g>
  </g>
</svg>
