<svg id="Layer_2" data-name="Layer 2" xmlns="http://www.w3.org/2000/svg" width="39" height="39" viewBox="0 0 39 39">
  <g id="invisible_box" data-name="invisible box">
    <rect id="Rectangle_147" data-name="Rectangle 147" width="39" height="39" fill="none"/>
  </g>
  <g id="icons_Q2" data-name="icons Q2" transform="translate(1.6 1.598)">
    <g id="Group_194" data-name="Group 194">
      <path id="Path_378" data-name="Path 378" d="M36.119,11.744V3.7a1.706,1.706,0,0,0-1.381-1.706,1.625,1.625,0,0,0-1.869,1.625V7.6a17.875,17.875,0,1,0,3.006,20.15,1.619,1.619,0,1,0-2.844-1.544,14.463,14.463,0,0,1-13.163,8.288A14.625,14.625,0,1,1,30.757,10.119H26.45A1.706,1.706,0,0,0,24.744,11.5a1.625,1.625,0,0,0,1.625,1.869h8.125A1.625,1.625,0,0,0,36.119,11.744Z" transform="translate(-1.969 -1.967)" fill="currentColor"/>
    </g>
  </g>
  <path id="Icon_awesome-bug" data-name="Icon awesome-bug" d="M15.325,8.648a.971.971,0,0,1-.977.931H12.692v.479a4.294,4.294,0,0,1-.407,1.83l1.8,1.8a.958.958,0,1,1-1.355,1.355l-1.638-1.638a4.292,4.292,0,0,1-2.713.961v-7.3A.359.359,0,0,0,8.022,6.7H7.3a.359.359,0,0,0-.359.359v7.3a4.292,4.292,0,0,1-2.713-.961L2.593,15.045a.958.958,0,1,1-1.355-1.355l1.8-1.8a4.294,4.294,0,0,1-.407-1.83V9.579H.978A.971.971,0,0,1,0,8.648a.958.958,0,0,1,.957-.985H2.634V5.9l-1.4-1.4A.958.958,0,0,1,2.593,3.154L4.228,4.789H11.1l1.635-1.635a.958.958,0,0,1,1.355,1.355l-1.4,1.4V7.663h1.676A.958.958,0,0,1,15.325,8.648ZM7.693,0A3.352,3.352,0,0,0,4.34,3.352h6.7A3.352,3.352,0,0,0,7.693,0Z" transform="translate(11.837 12.674)" fill="currentColor"/>
</svg>
