<svg xmlns="http://www.w3.org/2000/svg" width="61.922" height="74.562" viewBox="0 0 61.922 74.562">
  <g id="Group_115" data-name="Group 115" transform="translate(-1422 -2210.36)">
    <g id="quality" transform="translate(1382.162 2210.36)">
      <path id="Path_193" data-name="Path 193" d="M101.669,66.372,91.8,42.541a1.19,1.19,0,0,0-2.2.911L98.523,65l-8.14-2.359a1.189,1.189,0,0,0-1.373.569l-4.088,7.423L75.347,47.513a23.992,23.992,0,1,0-23.779-9.24l-11.639,28.1a1.19,1.19,0,0,0,1.43,1.6l9.6-2.783,4.823,8.758a1.19,1.19,0,0,0,1.042.616l.066,0a1.19,1.19,0,0,0,1.034-.733l9.223-22.266a1.19,1.19,0,1,0-2.2-.911L56.675,70.629l-4.088-7.423a1.19,1.19,0,0,0-1.373-.569L43.075,65,53.291,40.332A23.91,23.91,0,0,0,70.8,47.947c.712,0,1.417-.033,2.114-.094L83.672,73.827a1.19,1.19,0,0,0,1.033.733l.066,0a1.19,1.19,0,0,0,1.042-.616l4.823-8.758,9.6,2.783a1.19,1.19,0,0,0,1.43-1.6ZM49.2,23.974A21.594,21.594,0,1,1,70.8,45.568,21.619,21.619,0,0,1,49.2,23.974Z" fill="currentColor"/>
      <path id="Path_194" data-name="Path 194" d="M175.527,69.988a1.19,1.19,0,0,0-.935-.806l-8.006-1.344-3.752-7.2a1.19,1.19,0,0,0-2.11,0l-3.752,7.2-8.006,1.344a1.19,1.19,0,0,0-.652,2.007L154,76.982l-1.2,8.029a1.19,1.19,0,0,0,1.707,1.24l7.267-3.619,7.267,3.619a1.19,1.19,0,0,0,1.707-1.24l-1.2-8.029,5.687-5.793A1.19,1.19,0,0,0,175.527,69.988Zm-8.083,5.75a1.19,1.19,0,0,0-.328,1.009l.947,6.357-5.754-2.865a1.189,1.189,0,0,0-1.061,0L155.5,83.1l.947-6.357a1.189,1.189,0,0,0-.328-1.009l-4.5-4.587,6.339-1.064a1.19,1.19,0,0,0,.858-.623l2.971-5.7,2.971,5.7a1.19,1.19,0,0,0,.858.623l6.339,1.064Z" transform="translate(-90.981 -50.482)" fill="currentColor"/>
      <path id="Path_195" data-name="Path 195" d="M151.119,50.415a1.189,1.189,0,0,0-1.336,1.023,16.835,16.835,0,1,1,0-4.447,1.19,1.19,0,1,0,2.359-.313,19.214,19.214,0,1,0,0,5.072,1.19,1.19,0,0,0-1.023-1.336Z" transform="translate(-62.297 -25.241)" fill="currentColor"/>
    </g>
  </g>
</svg>
