<svg xmlns="http://www.w3.org/2000/svg" width="39" height="39" viewBox="0 0 39 39">
  <g id="Layer_2" data-name="Layer 2" transform="translate(0 0.157)">
    <g id="invisible_box" data-name="invisible box" transform="translate(0 -0.157)">
      <rect id="Rectangle_143" data-name="Rectangle 143" width="39" height="39" fill="none"/>
    </g>
    <g id="Q3_icons" data-name="Q3 icons" transform="translate(2.471 1.613)">
      <g id="Group_193" data-name="Group 193">
        <path id="Path_369" data-name="Path 369" d="M36.858,20.8a52.811,52.811,0,0,1-3.743-5.859C31.894,6.23,26.931,1.836,18.3,2c-4.882.081-8.951,1.709-11.636,4.72a14.963,14.963,0,0,0-3.58,11.392c.325,4.476,1.3,6.1,3.418,8.788s2.36,3.174,1.465,6.51A1.546,1.546,0,0,0,9.11,35.362a1.627,1.627,0,0,0,2.034-1.139c1.139-4.557.488-5.94-2.116-9.277a11.229,11.229,0,0,1-2.685-7.079A11.392,11.392,0,0,1,9.028,8.916c2.116-2.278,5.371-3.58,9.358-3.662s10.253.976,11.555,10.172c.081.976,1.546,3.255,3.011,5.533l-1.79.57A1.627,1.627,0,0,0,30.1,23.075v2.36c0,2.278.081,4.069-.488,4.638s-1.465.651-3.255.651A3.092,3.092,0,0,0,23.187,33.9v2.278a1.627,1.627,0,1,0,3.255,0v-2.2c1.953,0,4.15-.244,5.533-1.627s1.465-3.662,1.383-7V24.214l2.685-.9A1.709,1.709,0,0,0,37.1,22.261,1.627,1.627,0,0,0,36.858,20.8Z" transform="translate(-3.037 -1.995)" fill="currentColor"/>
        <path id="Path_370" data-name="Path 370" d="M22.147,14.064l-.325-.814L22.8,11.7a6.266,6.266,0,0,0-1.465-1.465l-1.546.976-.814-.325L18.567,9.1H16.451l-.407,1.79-.814.325-1.546-.976A6.266,6.266,0,0,0,12.22,11.7L13.2,13.25l-.325.814-1.79.407A4.638,4.638,0,0,0,11,15.528a4.638,4.638,0,0,0,.081,1.058l1.79.407.325.814-.976,1.546a6.266,6.266,0,0,0,1.465,1.465l1.546-.976.814.325.407,1.79h2.116l.407-1.79.814-.325,1.546.976A6.266,6.266,0,0,0,22.8,19.353l-.976-1.546.325-.814,1.79-.407a4.638,4.638,0,0,0,.081-1.058,4.638,4.638,0,0,0-.081-1.058Zm-4.638,3.092a1.627,1.627,0,1,1,1.627-1.627A1.627,1.627,0,0,1,17.509,17.156Z" transform="translate(-4.519 -3.318)" fill="currentColor"/>
      </g>
    </g>
  </g>
</svg>
