<svg xmlns="http://www.w3.org/2000/svg" width="34" height="34" viewBox="0 0 34 34">
  <g id="Layer_2" data-name="Layer 2" transform="translate(0 -0.001)">
    <g id="invisible_box" data-name="invisible box" transform="translate(0 0.001)">
      <rect id="Rectangle_146" data-name="Rectangle 146" width="34" height="34" fill="none"/>
    </g>
    <g id="icons_Q2" data-name="icons Q2" transform="translate(1.417 2.834)">
      <path id="Path_376" data-name="Path 376" d="M24.668,6.9a5.384,5.384,0,0,1,3.967,1.7,5.454,5.454,0,0,1,1.7,3.967c0,1.488-.921,3.188-2.763,5.242L17.584,28.438,7.6,17.813c-1.842-2.054-2.763-3.754-2.763-5.242A5.454,5.454,0,0,1,6.533,8.6,5.384,5.384,0,0,1,10.5,6.9c1.558,0,3.613,1.417,4.6,3.188l1.842,3.117a.779.779,0,0,0,1.275,0l1.842-3.117c.992-1.771,3.046-3.188,4.6-3.188m0-2.9C21.9,4,19,6.2,17.584,8.6,16.167,6.2,13.263,4,10.5,4A8.5,8.5,0,0,0,4.479,6.55,8.43,8.43,0,0,0,2,12.571c0,2.9,1.913,5.384,3.542,7.225L17.088,32.122a.708.708,0,0,0,.992,0L29.626,19.8c1.629-1.842,3.542-4.321,3.542-7.225A8.571,8.571,0,0,0,24.667,4Z" transform="translate(-2 -4)" fill="currentColor"/>
    </g>
  </g>
</svg>
