<svg xmlns="http://www.w3.org/2000/svg" width="51.081" height="70.53" viewBox="0 0 51.081 70.53">
  <g id="idea" transform="translate(-64.801)">
    <path id="Path_188" data-name="Path 188" d="M274.392,338.815a1.125,1.125,0,0,0-1.125,1.125v16.31H258.625a1.125,1.125,0,1,0,0,2.251h15.767a1.125,1.125,0,0,0,1.125-1.125V339.94A1.125,1.125,0,0,0,274.392,338.815Z" transform="translate(-163.782 -287.971)" fill="currentColor"/>
    <path id="Path_189" data-name="Path 189" d="M115.8,253.145l-4.147-9.951a1.125,1.125,0,0,0-1.039-.693H70.073a1.125,1.125,0,0,0-1.039.693l-4.147,9.951a1.126,1.126,0,0,0,1.039,1.558h3.021v20.811a1.125,1.125,0,0,0,1.125,1.125H90.341a1.125,1.125,0,0,0,1.125-1.125V249.254l1.982,4.757a1.125,1.125,0,0,0,1.039.693h20.269a1.126,1.126,0,0,0,1.039-1.558Zm-44.972-8.393h17.83l-3.209,7.7H67.614Zm.375,29.638V254.7h15a1.125,1.125,0,0,0,1.039-.693l1.982-4.757v25.136Zm24.04-21.937-3.209-7.7h17.83l3.209,7.7Z" transform="translate(0 -206.11)" fill="currentColor"/>
    <path id="Path_190" data-name="Path 190" d="M147.046,26.28l.622,2.5a1.125,1.125,0,0,0,1.092.854h11.551a1.126,1.126,0,0,0,1.092-.854l.622-2.5a14.206,14.206,0,1,0-14.98,0Zm7.49-24.029a11.957,11.957,0,0,1,5.95,22.328,1.125,1.125,0,0,0-.531.7l-.523,2.1h-9.791l-.523-2.1a1.125,1.125,0,0,0-.531-.7,11.957,11.957,0,0,1,5.95-22.328Z" transform="translate(-64.195)" fill="currentColor"/>
    <path id="Path_191" data-name="Path 191" d="M201.688,212.5H190.136a1.125,1.125,0,1,0,0,2.251h11.551a1.125,1.125,0,1,0,0-2.251Z" transform="translate(-105.571 -180.612)" fill="currentColor"/>
    <path id="Path_192" data-name="Path 192" d="M204.926,123.3a1.125,1.125,0,0,0,2.184-.543l-1-4.005h4.308l-1,4.005a1.125,1.125,0,1,0,2.184.543l1.343-5.4c0-.006,0-.012,0-.018,0-.022.009-.044.013-.066s.006-.034.008-.051,0-.036,0-.054,0-.043,0-.064c0-.006,0-.013,0-.019s0-.017,0-.026,0-.046,0-.068,0-.031,0-.047-.006-.041-.009-.061-.007-.035-.011-.052-.008-.035-.013-.052-.011-.038-.018-.057-.01-.029-.016-.044-.016-.039-.025-.059l-.019-.04c-.01-.019-.02-.038-.03-.056l-.024-.04c-.011-.017-.022-.033-.033-.05l-.031-.041-.034-.042-.038-.042-.035-.035-.045-.041-.036-.03-.049-.036-.041-.028-.049-.03-.049-.027-.046-.022-.06-.025-.042-.015-.068-.021-.024-.007-.018,0-.064-.013L212,116.51l-.049,0-.071,0h-7.2a1.126,1.126,0,0,0-1.092,1.4Z" transform="translate(-117.928 -99.018)" fill="currentColor"/>
  </g>
</svg>
