<svg xmlns="http://www.w3.org/2000/svg" width="1661.322" height="410.333" viewBox="0 0 1661.322 410.333">
  <g id="Group_1206" data-name="Group 1206" transform="translate(-1339.221 3209.709)">
    <g id="CERTIX" transform="translate(1486.356 -4573.109)" style="isolation: isolate">
      <g id="Group_1204" data-name="Group 1204" style="isolation: isolate">
        <path id="Path_1189" data-name="Path 1189" d="M317.239,1444.413q29.65-30.3,75.445-30.3,61.275,0,89.61,40.627,15.649,22.813,16.8,45.788H447.812q-4.893-17.645-12.561-26.64-13.7-15.984-40.614-15.985-27.406,0-43.228,22.562t-15.821,63.854q0,41.3,16.695,61.857t42.427,20.563q26.385,0,40.232-17.65,7.652-9.489,12.7-28.472H498.6q-6.591,40.129-33.686,65.27t-69.43,25.141q-52.382,0-82.362-33.966-29.979-34.129-29.978-93.575Q283.14,1479.214,317.239,1444.413Z" fill="#44c19a"/>
        <path id="Path_1190" data-name="Path 1190" d="M721.544,1462.229H591.671v52.116H710.888v42.625H591.671v63.1H727.538V1664.2H541.554V1418.771h179.99Z" fill="#44c19a"/>
        <path id="Path_1191" data-name="Path 1191" d="M924.777,1425.1a60.614,60.614,0,0,1,22.976,17.15,76.38,76.38,0,0,1,12.339,20.647,68.806,68.806,0,0,1,4.548,25.807,73.539,73.539,0,0,1-8.825,34.383q-8.828,16.9-29.138,23.893,16.983,6.829,24.059,19.4t7.077,38.38v16.483q0,16.82,1.353,22.812,2.029,9.489,9.47,13.986v6.16H912.024q-2.332-8.156-3.33-13.154a120.633,120.633,0,0,1-2.164-21.146l-.334-22.811q-.315-23.475-8.111-31.3t-29.216-7.825H818.782V1664.2H768.665V1418.771h117.39Q911.218,1419.271,924.777,1425.1Zm-105.995,36.3v65.936h55.191q16.446,0,24.669-4,14.548-6.993,14.548-27.64,0-22.31-14.075-29.97-7.905-4.328-23.719-4.33Z" fill="#44c19a"/>
        <path id="Path_1192" data-name="Path 1192" d="M1192.085,1418.771v43.458h-73.429V1664.2H1067.04V1462.229H993.278v-43.458Z" fill="#44c19a"/>
        <path id="Path_1193" data-name="Path 1193" d="M1268.843,1664.2h-50.949V1418.771h50.949Z" fill="#44c19a"/>
        <path id="Path_1194" data-name="Path 1194" d="M1356.008,1664.2H1296.4l78.923-125.045-75.093-120.382H1361.5l43.772,79.927,44.975-79.927h59.275l-75.093,118.384,79.756,127.043h-62.273l-46.635-83.683Z" fill="#44c19a"/>
      </g>
    </g>
    <g id="Group_1205" data-name="Group 1205" transform="translate(3889.221 -2479.849)">
      <g id="Group_1138" data-name="Group 1138" transform="translate(-2550 -729.86)">
        <path id="Path_150" data-name="Path 150" d="M725.117,296.574v29.747c-49.049,39.969-189.286,154.238-217.734,177.415L361.173,391.792V296.574S431.807,267,543.145,267,725.117,296.574,725.117,296.574Z" transform="translate(-361.173 -267)" fill="#44c19a"/>
        <path id="Path_151" data-name="Path 151" d="M508.085,896.491c3.037-3.116,149.094-151.576,217.715-221.35v50.566c0,217.754-181.972,259.243-181.972,259.243S369.178,945.13,362.08,738.766C404.686,784.8,502.663,890.581,508.085,896.491Z" transform="translate(-361.856 -574.617)" fill="#298472"/>
        <g id="Group_121" data-name="Group 121" transform="translate(146.179 321.875)">
          <path id="Path_152" data-name="Path 152" d="M954.726,1573.848h0C954.659,1573.914,954.658,1573.915,954.726,1573.848Z" transform="translate(-954.675 -1573.848)" fill="#fff"/>
        </g>
      </g>
    </g>
  </g>
</svg>
