<svg xmlns="http://www.w3.org/2000/svg" xmlns:xlink="http://www.w3.org/1999/xlink" width="43.607" height="51.709" viewBox="0 0 43.607 51.709"><defs><linearGradient id="a" x1="0.468" y1="0.571" x2="0.815" y2="-0.194" gradientUnits="objectBoundingBox"><stop offset="0" stop-color="#045304"/><stop offset="1" stop-color="#00ff97"/></linearGradient><linearGradient id="b" x1="0.043" y1="1.107" x2="0.884" y2="-0.01" gradientUnits="objectBoundingBox"><stop offset="0" stop-color="#00e386"/><stop offset="1" stop-color="#057246"/></linearGradient><linearGradient id="c" x1="0.839" y1="0.748" x2="-0.434" y2="-0.183" gradientUnits="objectBoundingBox"><stop offset="0" stop-color="#0fb472"/><stop offset="1" stop-color="#222a4c"/></linearGradient><clipPath id="d"><path d="M1478.48,1060.954l-1.058-.406-.423-.162-.423.162-1.058.406-17.637,6.768-1.867.717-.747.286-.016.8-.04,2c-.647,32.558,20.047,39.937,20.375,40.054h0l1,.364.4.146.4-.146,1-.362h0v0a27.761,27.761,0,0,0,10.749-8.091c-5.992,4.18-12.161-.515-12.161-.515a26.6,26.6,0,0,1-10.409-12.17,43.449,43.449,0,0,1-3.072-16.326l13.48-5.072,13.48,5.072a11.27,11.27,0,0,0-6.791-11.529Z" transform="translate(-1455.195 -1060.386)" fill="url(#a)" clip-rule="evenodd"/></clipPath><clipPath id="f"><path d="M2006.7,1124.527c9.7,4.4,7.03,20.177,3.719,27.856a26.6,26.6,0,0,1-10.409,12.17s6.173,4.7,12.168.511c5.063-5.957,9.94-15.891,9.621-31.958l-.04-2-.016-.8-.747-.286-1.867-.717Z" transform="translate(-2000.01 -1124.527)" fill="url(#b)" clip-rule="evenodd"/></clipPath><clipPath id="h"><path d="M1491.576,1428.94a43.45,43.45,0,0,1-3.072-16.326s-8.135,3.651-7.208,10.535c2.262,11.359,8.967,22.833,20.284,26.932l.4.146.4-.146a27.6,27.6,0,0,0,11.763-8.459c-5.994,4.187-12.167-.511-12.167-.511a26.593,26.593,0,0,1-10.409-12.17" transform="translate(-1481.222 -1412.614)" fill="url(#c)" clip-rule="evenodd"/></clipPath></defs><g transform="translate(0 0)"><g transform="translate(0)" clip-path="url(#d)"><rect width="37.061" height="51.709" transform="translate(-0.632 0)" fill="url(#a)"/></g></g><g transform="translate(21.804 2.567)"><g transform="translate(0 0)" clip-path="url(#f)"><rect width="22.108" height="44.724" transform="translate(0)" fill="url(#b)"/></g></g><g transform="translate(1.042 14.096)"><g transform="translate(0)" clip-path="url(#h)"><rect width="33.783" height="37.613" transform="translate(-0.854 0)" fill="url(#c)"/></g></g></svg>