<svg id="Vrstva_1" xmlns="http://www.w3.org/2000/svg" viewBox="0 0 168.94 52"><defs><linearGradient id="Nepojmenovaný_přechod" x1="23.84" y1="56.87" x2="24.18" y2="57.64" gradientTransform="matrix(37.06 0 0 -51.71 -866.1 2970.54)" gradientUnits="userSpaceOnUse"><stop offset="0" stop-color="#045304"/><stop offset="1" stop-color="#00ff97"/></linearGradient><linearGradient id="Nepojmenovaný_přechod_2" x1="23.01" y1="56.32" x2="23.85" y2="57.43" gradientTransform="matrix(22.11 0 0 -44.72 -484.79 2571.34)" gradientUnits="userSpaceOnUse"><stop offset="0" stop-color="#00e386"/><stop offset="1" stop-color="#057246"/></linearGradient><linearGradient id="Nepojmenovaný_přechod_3" x1="24.16" y1="56.67" x2="22.88" y2="57.61" gradientTransform="matrix(33.78 0 0 -37.61 -786.6 2173.85)" gradientUnits="userSpaceOnUse"><stop offset="0" stop-color="#0fb472"/><stop offset="1" stop-color="#222a4c"/></linearGradient><clipPath id="clippath"><path class="cls-4" d="M24.29.86 23.23.45l-.42-.16-.42.16-1.06.41L3.69 7.63l-1.87.72-.75.29-.02.8-.04 2C.37 43.99 21.06 51.37 21.39 51.48l1 .36.4.15.4-.15 1-.36a27.74 27.74 0 0 0 10.75-8.09c-5.99 4.18-12.16-.52-12.16-.52A26.596 26.596 0 0 1 12.37 30.7 43.451 43.451 0 0 1 9.3 14.37L22.78 9.3l13.48 5.07c.51-4.92-2.24-9.59-6.79-11.53l-5.18-2z"/></clipPath><clipPath id="clippath-1"><path class="cls-4" d="M29.49 2.86c9.7 4.4 7.03 20.18 3.72 27.86A26.596 26.596 0 0 1 22.8 42.89s6.17 4.7 12.17.51c5.06-5.96 9.94-15.89 9.62-31.96l-.04-2-.02-.8-.75-.29-1.87-.72-12.43-4.78z"/></clipPath><clipPath id="clippath-2"><path class="cls-4" d="M12.4 30.71a43.451 43.451 0 0 1-3.07-16.33s-8.14 3.65-7.21 10.54c2.26 11.36 8.97 22.83 20.28 26.93l.4.15.4-.15c4.6-1.72 8.67-4.64 11.76-8.46-5.99 4.19-12.17-.51-12.17-.51a26.596 26.596 0 0 1-10.41-12.17"/></clipPath><style>.cls-2{isolation:isolate}.cls-3,.cls-4{fill:#00b068;stroke-width:0}.cls-4{fill:none}</style></defs><g id="Group_123"><g id="CERTIX" class="cls-2"><g class="cls-2"><path class="cls-3" d="M69.52 37.62c-1.84.89-4.24 1.34-7.21 1.34-3.87 0-6.91-1.14-9.12-3.41s-3.32-5.3-3.32-9.09c0-4.03 1.25-7.3 3.74-9.81s5.72-3.76 9.69-3.76c2.46 0 4.54.31 6.22.93v5.47c-1.69-1.01-3.61-1.51-5.77-1.51-2.37 0-4.28.74-5.73 2.23s-2.18 3.5-2.18 6.05.69 4.38 2.06 5.83 3.22 2.17 5.54 2.17 4.24-.54 6.08-1.62v5.19zM89.03 38.52H73.91V13.31h14.54v4.62h-8.86v5.61h8.24v4.61h-8.24v5.77h9.44v4.61zM114.22 38.52h-6.52l-3.92-6.49c-.29-.49-.57-.93-.84-1.32s-.54-.72-.82-.99-.56-.49-.86-.63-.62-.22-.98-.22h-1.53v9.65h-5.68V13.31h9c6.12 0 9.18 2.29 9.18 6.86 0 .88-.13 1.69-.4 2.43s-.65 1.42-1.14 2.01-1.09 1.11-1.78 1.55-1.47.77-2.33 1.02v.07c.38.12.74.31 1.09.57s.69.57 1.02.92.64.73.94 1.13.57.8.82 1.19l4.76 7.45zM98.75 17.57v7.01h2.46c1.22 0 2.2-.35 2.94-1.05.75-.71 1.12-1.6 1.12-2.65 0-2.2-1.32-3.3-3.96-3.3h-2.57zM133.56 17.94h-7.19v20.58h-5.7V17.94h-7.15v-4.62h20.04v4.62zM142.63 38.52h-5.68V13.31h5.68v25.21zM168.94 38.52h-6.73l-4.34-8.21c-.16-.3-.33-.87-.51-1.69h-.07c-.08.39-.28.97-.58 1.76l-4.36 8.14h-6.77l8.03-12.6-7.35-12.6h6.91l3.6 7.56c.28.6.53 1.31.76 2.13h.07c.14-.49.4-1.22.79-2.2l4.01-7.49h6.33l-7.56 12.5 7.77 12.71z"/></g></g><g id="Group_119"><g style="clip-path:url(#clippath)" id="Group_18"><g id="Group_17"><path id="Rectangle_21" style="fill:url(#Nepojmenovaný_přechod);stroke-width:0" d="M0 0h37v52H0z"/></g></g><g style="clip-path:url(#clippath-1)" id="Group_20"><g id="Group_19"><path id="Rectangle_22" style="fill:url(#Nepojmenovaný_přechod_2);stroke-width:0" d="M23 3h22v45H23z"/></g></g><g style="clip-path:url(#clippath-2)" id="Group_22"><g id="Group_21"><path id="Rectangle_24" style="fill:url(#Nepojmenovaný_přechod_3);stroke-width:0" d="M1 14h34v38H1z"/></g></g></g></g></svg>