<svg id="map" xmlns="http://www.w3.org/2000/svg" width="65.19" height="65.189" viewBox="0 0 65.19 65.189">
  <path id="Path_199" data-name="Path 199" d="M65.19,43.1V22.078a1.04,1.04,0,0,0-.744-1L54.721,18.2a14.489,14.489,0,0,0,1.222-5.366,12.83,12.83,0,1,0-25.66,0A14.489,14.489,0,0,0,31.5,18.2l-9.429,2.8L1.336,14.839a1.04,1.04,0,0,0-1.336,1V57.908a1.04,1.04,0,0,0,.744,1l21.02,6.237.016,0,.01,0a1.017,1.017,0,0,0,.119.026l.033,0a.948.948,0,0,0,.269,0l.032,0a1.057,1.057,0,0,0,.119-.026l.01,0,.01,0,20.31-6.026a1.035,1.035,0,0,0,.843,0l20.319,6.029a1.04,1.04,0,0,0,1.336-1V43.105S65.19,43.1,65.19,43.1ZM63.109,22.854V41.72L44.153,36.1V33.137c1.357-1.4,6.684-7.073,9.692-13.031l9.264,2.749Zm-20-20.774A10.762,10.762,0,0,1,53.862,12.83a13.559,13.559,0,0,1-1.444,5.477,1.039,1.039,0,0,0-.106.226c-2.507,5.291-7.355,10.715-9.2,12.677-1.843-1.96-6.687-7.376-9.195-12.665A1.04,1.04,0,0,0,33.8,18.3a13.553,13.553,0,0,1-1.439-5.468A10.762,10.762,0,0,1,43.113,2.081Zm-1.04,31.056V36.1L23.116,41.72V22.854l9.264-2.749C35.389,26.064,40.716,31.74,42.073,33.137ZM2.081,38.266,9.268,40.4A1.04,1.04,0,1,0,9.859,38.4L2.081,36.1V17.23l18.955,5.624V41.72l-7.187-2.133a1.04,1.04,0,0,0-.592,1.995l7.779,2.308V62.756L2.081,57.132V38.266ZM44.153,57.132V49.6a1.04,1.04,0,1,0-2.081,0v7.531L23.116,62.756V43.89l18.956-5.624v7.174a1.04,1.04,0,0,0,2.081,0V38.266L63.109,43.89V62.756Z" fill="currentColor"/>
  <path id="Path_200" data-name="Path 200" d="M265.613,54.564a7.282,7.282,0,1,0-7.282-7.282A7.29,7.29,0,0,0,265.613,54.564Zm0-12.483a5.2,5.2,0,1,1-5.2,5.2A5.207,5.207,0,0,1,265.613,42.081Z" transform="translate(-222.5 -34.452)" fill="currentColor"/>
</svg>
