<svg id="Layer_2" data-name="Layer 2" xmlns="http://www.w3.org/2000/svg" width="48" height="48" viewBox="0 0 48 48">
  <g id="invisible_box" data-name="invisible box">
    <rect id="Rectangle_92" data-name="Rectangle 92" width="48" height="48" fill="rgba(0,0,0,0)"/>
  </g>
  <g id="icons_Q2" data-name="icons Q2">
    <path id="Path_246" data-name="Path 246" d="M24,6.2c5.3,1.5,11.1,3.3,14,4.3V26.2c0,3.4-3.7,9.4-14,15.4-10.3-6.1-14-12-14-15.4V10.5c2.9-1.1,8.7-2.8,14-4.3M24,2S6,7.1,6,8V26.2c0,9.2,13.3,17.3,17,19.5a1.8,1.8,0,0,0,2,0c3.8-2.1,17-10.3,17-19.5V8C42,7.1,24,2,24,2Z" fill="#0d1e65"/>
    <path id="Path_247" data-name="Path 247" d="M19.6,29.4l-5-4.9a2.1,2.1,0,0,1-.2-2.7,1.9,1.9,0,0,1,3-.2L21,25.2l9.6-9.6a2,2,0,0,1,2.8,2.8l-11,11a1.9,1.9,0,0,1-2.8,0Z" fill="#0d1e65"/>
  </g>
</svg>
