<svg xmlns="http://www.w3.org/2000/svg" width="69.64" height="69.64" viewBox="0 0 69.64 69.64">
  <path id="targeting" d="M69.52,6.9a1.111,1.111,0,0,0-1.16-.6l-5.933.915.915-5.933A1.111,1.111,0,0,0,61.456.325L54.569,7.213a1.111,1.111,0,0,0-.312.617L53.166,14.9l-3.943,3.943a29.242,29.242,0,1,0,3.81,4.295,1.111,1.111,0,1,0-1.8,1.305,27.1,27.1,0,1,1-3.584-4.027l-5.08,5.08a19.864,19.864,0,1,0,3.738,4.489,1.111,1.111,0,0,0-1.9,1.157A17.682,17.682,0,1,1,41,27.071l-5.092,5.092a10.482,10.482,0,1,0,3.46,5.143,1.111,1.111,0,1,0-2.128.64A8.287,8.287,0,1,1,29.3,32.053a8.225,8.225,0,0,1,5.021,1.693l-5.807,5.807a1.111,1.111,0,0,0,1.571,1.572L50.021,21.19l4.716-4.716,7.073-1.09a1.111,1.111,0,0,0,.617-.312l6.888-6.888A1.112,1.112,0,0,0,69.52,6.9ZM56.4,8.528,60.626,4.3l-.573,3.716-4.229,4.229Zm4.715,4.715-3.716.573,4.229-4.229,3.716-.573-4.229,4.229Z" transform="translate(0)" fill="currentColor"/>
</svg>
