<svg xmlns="http://www.w3.org/2000/svg" xmlns:xlink="http://www.w3.org/1999/xlink" width="1977.768" height="2075.444" viewBox="0 0 1977.768 2075.444">
  <defs>
    <linearGradient id="linear-gradient" x1="-0.165" y1="0.5" x2="2.401" y2="0.5" gradientUnits="objectBoundingBox">
      <stop offset="0" stop-color="#fff"/>
      <stop offset="0.914" stop-color="#9196a8"/>
    </linearGradient>
    <linearGradient id="linear-gradient-2" x1="-0.052" y1="0.5" x2="1.303" y2="0.5" gradientUnits="objectBoundingBox">
      <stop offset="0.174" stop-color="#37b34a"/>
      <stop offset="0.355" stop-color="#36b049"/>
      <stop offset="0.472" stop-color="#35a746"/>
      <stop offset="0.571" stop-color="#339842"/>
      <stop offset="0.66" stop-color="#30833c"/>
      <stop offset="0.743" stop-color="#2c6834"/>
      <stop offset="0.819" stop-color="#28472b"/>
      <stop offset="0.892" stop-color="#232020"/>
      <stop offset="0.894" stop-color="#231f20"/>
    </linearGradient>
    <linearGradient id="linear-gradient-3" y1="0.5" x2="1" y2="0.5" gradientUnits="objectBoundingBox">
      <stop offset="0" stop-color="#0fb472"/>
      <stop offset="1" stop-color="#222a4c"/>
    </linearGradient>
    <linearGradient id="linear-gradient-5" x1="-0.008" y1="0.5" x2="1.209" y2="0.5" gradientUnits="objectBoundingBox">
      <stop offset="0" stop-color="#37b34a"/>
      <stop offset="0.185" stop-color="#34ae46"/>
      <stop offset="0.399" stop-color="#2ca03c"/>
      <stop offset="0.629" stop-color="#20882b"/>
      <stop offset="0.867" stop-color="#0f6813"/>
      <stop offset="1" stop-color="#045304"/>
    </linearGradient>
  </defs>
  <g id="Group_1212" data-name="Group 1212" transform="translate(-1220.771 1686)">
    <g id="Group_1199" data-name="Group 1199" transform="translate(978.989 -1842.016)">
      <g id="plant">
        <g id="Group_1142" data-name="Group 1142">
          <g id="Group_1141" data-name="Group 1141">
            <path id="Rectangle_961" data-name="Rectangle 961" d="M0,0H247.751a0,0,0,0,1,0,0V168.875A123.875,123.875,0,0,1,123.876,292.75h0A123.875,123.875,0,0,1,0,168.875V0A0,0,0,0,1,0,0Z" transform="translate(641.13 1841.718)" fill="#5896fa"/>
            <rect id="Rectangle_962" data-name="Rectangle 962" width="13.73" height="262.118" transform="translate(627.4 1969.342)" fill="#0e0e0e"/>
            <rect id="Rectangle_963" data-name="Rectangle 963" width="13.73" height="262.118" transform="translate(888.881 1969.342)" fill="#0e0e0e"/>
            <rect id="Rectangle_964" data-name="Rectangle 964" width="13.73" height="262.118" transform="translate(783.814 1969.342)" fill="#0e0e0e"/>
          </g>
          <rect id="Rectangle_965" data-name="Rectangle 965" width="262.118" height="13.73" transform="translate(627.4 2134.469)" fill="#0e0e0e"/>
        </g>
        <g id="Group_1143" data-name="Group 1143">
          <path id="Path_1108" data-name="Path 1108" d="M957.932,1562.725c14.952,21.535-15.143,40.092-19.829,69.94s29.5,46.642-6.757,85.725c-22.334,24.072-41.185-7.9-59.338,28.987s-3.849,43.109-24.254,56.383c-35.572,23.142-89.993-28-71.69-64.851s55.326-33.551,38.2-63.868-23.5-43.379,6.037-58.96c36.56-19.284,68.775-1.573,71.716-29.782S938.155,1534.242,957.932,1562.725Z" fill="#006838"/>
          <path id="Path_1109" data-name="Path 1109" d="M801.653,1840.025l-6.154-1.217c28.824-145.687,124.383-247.7,125.345-248.717l4.549,4.318C924.444,1595.411,830.114,1696.179,801.653,1840.025Z" fill="#0e0e0e"/>
        </g>
        <g id="Group_1144" data-name="Group 1144">
          <path id="Path_1110" data-name="Path 1110" d="M478.816,1508.9c-15.456,31.505,28.1,50.01,40.3,88.567s-32.733,52.177,23.112,96.606c34.4,27.363,41.594,10.255,54.239,71.468,11.132,53.893,52.08,2.612,82.7,34.241,39.51,40.811,101.249-48.764,69.618-93.843s-68.542-33.425-51.971-76.989-3.193-76.387-45.415-91.064c-52.257-18.167-71.052,25.693-80.617-11.046S499.258,1467.23,478.816,1508.9Z" fill="#37b34a"/>
          <path id="Path_1111" data-name="Path 1111" d="M741.388,1844.432C674.762,1659.7,529.7,1545.418,528.246,1544.287l5.153-6.632c1.476,1.148,148.445,116.93,215.888,303.927Z" fill="#0e0e0e"/>
        </g>
      </g>
      <circle id="Ellipse_271" data-name="Ellipse 271" cx="529.806" cy="529.806" r="529.806" transform="translate(384.345 273.411)" fill="none" stroke="#2e77e6" stroke-miterlimit="10" stroke-width="6" stroke-dasharray="13.096 13.096"/>
      <g id="Group_1154" data-name="Group 1154">
        <rect id="Rectangle_966" data-name="Rectangle 966" width="442.458" height="378.939" rx="24.034" transform="translate(692.922 1074.821)" fill="#5896fa"/>
        <g id="Group_1153" data-name="Group 1153">
          <g id="Group_1152" data-name="Group 1152">
            <path id="Path_1112" data-name="Path 1112" d="M1048.106,1303.626H781.374a15.917,15.917,0,0,1-15.87-15.87h0a15.916,15.916,0,0,1,15.87-15.87h266.732a15.916,15.916,0,0,1,15.869,15.87h0A15.916,15.916,0,0,1,1048.106,1303.626Z" fill="#fff"/>
            <path id="Path_1113" data-name="Path 1113" d="M1048.106,1354.739H781.374a15.916,15.916,0,0,1-15.87-15.869h0a15.916,15.916,0,0,1,15.87-15.87h266.732a15.916,15.916,0,0,1,15.869,15.87h0A15.916,15.916,0,0,1,1048.106,1354.739Z" fill="#fff"/>
            <g id="Group_1145" data-name="Group 1145">
              <path id="Path_1114" data-name="Path 1114" d="M831.18,1340.276a5.587,5.587,0,1,1-5.588-5.587A5.587,5.587,0,0,1,831.18,1340.276Z" fill="#80b2ff"/>
              <path id="Path_1115" data-name="Path 1115" d="M850.336,1340.276a5.587,5.587,0,1,1-5.587-5.587A5.587,5.587,0,0,1,850.336,1340.276Z" fill="#80b2ff"/>
              <path id="Path_1116" data-name="Path 1116" d="M869.492,1340.276a5.587,5.587,0,1,1-5.587-5.587A5.586,5.586,0,0,1,869.492,1340.276Z" fill="#80b2ff"/>
              <path id="Path_1117" data-name="Path 1117" d="M888.648,1340.276a5.587,5.587,0,1,1-5.587-5.587A5.587,5.587,0,0,1,888.648,1340.276Z" fill="#80b2ff"/>
              <path id="Path_1118" data-name="Path 1118" d="M907.8,1340.276a5.587,5.587,0,1,1-5.588-5.587A5.587,5.587,0,0,1,907.8,1340.276Z" fill="#80b2ff"/>
              <path id="Path_1119" data-name="Path 1119" d="M926.961,1340.276a5.587,5.587,0,1,1-5.587-5.587A5.587,5.587,0,0,1,926.961,1340.276Z" fill="#80b2ff"/>
              <path id="Path_1120" data-name="Path 1120" d="M946.117,1340.276a5.587,5.587,0,1,1-5.587-5.587A5.586,5.586,0,0,1,946.117,1340.276Z" fill="#80b2ff"/>
              <path id="Path_1121" data-name="Path 1121" d="M965.273,1340.276a5.587,5.587,0,1,1-5.587-5.587A5.587,5.587,0,0,1,965.273,1340.276Z" fill="#80b2ff"/>
              <path id="Path_1122" data-name="Path 1122" d="M984.43,1340.276a5.587,5.587,0,1,1-5.588-5.587A5.587,5.587,0,0,1,984.43,1340.276Z" fill="#80b2ff"/>
            </g>
            <g id="Group_1148" data-name="Group 1148">
              <circle id="Ellipse_272" data-name="Ellipse 272" cx="61.315" cy="61.315" r="61.315" transform="translate(853.514 1104.849)" fill="#fff"/>
              <g id="Group_1147" data-name="Group 1147">
                <g id="Group_1146" data-name="Group 1146">
                  <path id="Path_1123" data-name="Path 1123" d="M914.917,1163.7a19.368,19.368,0,0,0,15.043-7.368,18.883,18.883,0,0,0,4.145-11.974,19.265,19.265,0,1,0-38.529,0,18.859,18.859,0,0,0,4.145,11.974A19.435,19.435,0,0,0,914.917,1163.7Z" fill="#005cea"/>
                </g>
                <path id="Path_1124" data-name="Path 1124" d="M948.9,1198.16c0,12.2-68.159,12.2-68.159,0l.022-14.224c2.693-19.444,62.6-20.261,68.15,0Z" fill="#005cea"/>
              </g>
            </g>
            <path id="Path_1125" data-name="Path 1125" d="M794.6,1335.943v-.85a6.245,6.245,0,1,0-12.489,0v.85h-.948V1347.2c0,1.945,14.424,1.945,14.424,0v-11.254Zm-10.263-.85a4.041,4.041,0,1,1,8.08,0v.85h-8.08Zm5.081,6.519v3.251a1.034,1.034,0,0,1-1.085,1,.961.961,0,0,1-1-1v-3.251a1.9,1.9,0,0,1-1-1.667,2,2,0,1,1,4,0A2.006,2.006,0,0,1,789.421,1341.612Z" fill="#5896fa"/>
            <g id="Group_1151" data-name="Group 1151">
              <g id="Group_1150" data-name="Group 1150">
                <g id="Group_1149" data-name="Group 1149">
                  <path id="Path_1126" data-name="Path 1126" d="M788.374,1286.6a4.088,4.088,0,0,0,3.174-1.555,3.987,3.987,0,0,0,.875-2.527,4.066,4.066,0,1,0-8.131,0,3.982,3.982,0,0,0,.875,2.527A4.1,4.1,0,0,0,788.374,1286.6Z" fill="#5896fa"/>
                </g>
                <path id="Path_1127" data-name="Path 1127" d="M795.545,1293.877c0,2.576-14.456,2.576-14.456,0l.078-3c.568-4.1,13.209-4.276,14.381,0Z" fill="#5896fa"/>
              </g>
              <path id="Path_1128" data-name="Path 1128" d="M881.8,1292.413H823.351a4.67,4.67,0,0,1-4.657-4.657h0a4.67,4.67,0,0,1,4.657-4.657H881.8a4.67,4.67,0,0,1,4.657,4.657h0A4.67,4.67,0,0,1,881.8,1292.413Z" fill="#80b2ff"/>
              <path id="Path_1129" data-name="Path 1129" d="M958.9,1292.413H900.444a4.671,4.671,0,0,1-4.657-4.657h0a4.67,4.67,0,0,1,4.657-4.657H958.9a4.67,4.67,0,0,1,4.657,4.657h0A4.671,4.671,0,0,1,958.9,1292.413Z" fill="#80b2ff"/>
            </g>
          </g>
          <rect id="Rectangle_967" data-name="Rectangle 967" width="80.164" height="27.193" rx="13.597" transform="translate(867.722 1377.069)" fill="#1251b3"/>
        </g>
      </g>
      <g id="Group_1156" data-name="Group 1156">
        <g id="Group_1155" data-name="Group 1155">
          <path id="Path_1130" data-name="Path 1130" d="M1381.73,946.429v-9.81a8.065,8.065,0,0,0-8.064-8.067H1287.8a8.067,8.067,0,0,0-8.067,8.067v173.415h222.112V946.429Z" fill="#1251b3"/>
          <path id="Path_1131" data-name="Path 1131" d="M1511.08,952.389h-217.8l-13.548,157.646h221.029Z" fill="#fff"/>
          <path id="Path_1132" data-name="Path 1132" d="M1501.845,1110.035H1279.733L1303.3,954.35a9.315,9.315,0,0,1,9.21-7.92h203.271a9.313,9.313,0,0,1,9.209,10.709Z" fill="#3383ff"/>
        </g>
      </g>
      <g id="Group_1167" data-name="Group 1167">
        <path id="Path_1133" data-name="Path 1133" d="M1056.77,732.545A93.334,93.334,0,0,0,878.3,683.615a65.174,65.174,0,0,0-108.577,48.694H757.549a63.183,63.183,0,0,0-63,63h0a63.184,63.184,0,0,0,63,63h294.572a63.183,63.183,0,0,0,63-63h0A63.163,63.163,0,0,0,1056.77,732.545Z" fill="url(#linear-gradient)"/>
        <g id="Group_1166" data-name="Group 1166">
          <g id="Group_1165" data-name="Group 1165">
            <g id="Group_1157" data-name="Group 1157">
              <path id="Path_1134" data-name="Path 1134" d="M1069.47,689.074a94.6,94.6,0,0,0-19.747,2.089,149.007,149.007,0,0,0-275.361-33.305,110.563,110.563,0,1,0-17.83,219.679H1069.47a94.232,94.232,0,0,0,0-188.463Z" fill="#cde9ff"/>
            </g>
            <g id="Group_1164" data-name="Group 1164">
              <g id="Group_1159" data-name="Group 1159">
                <rect id="Rectangle_968" data-name="Rectangle 968" width="186.208" height="64.603" transform="translate(810.284 788.051)" fill="#5896fa"/>
                <rect id="Rectangle_969" data-name="Rectangle 969" width="170.536" height="10.043" transform="translate(818.119 778.008)" fill="#003359"/>
                <circle id="Ellipse_273" data-name="Ellipse 273" cx="4.886" cy="4.886" r="4.886" transform="translate(830.586 816.634)" fill="#fff"/>
                <path id="Path_1135" data-name="Path 1135" d="M858.189,827.166a5.646,5.646,0,1,1,5.647-5.646A5.652,5.652,0,0,1,858.189,827.166Zm0-9.772a4.126,4.126,0,1,0,4.127,4.126A4.131,4.131,0,0,0,858.189,817.394Z" fill="#003359"/>
                <g id="Group_1158" data-name="Group 1158">
                  <path id="Path_1136" data-name="Path 1136" d="M980.542,811.348H900.793v-8.13h79.749Zm-78.229-1.521h76.709v-5.089H902.313Z" fill="#003359"/>
                  <path id="Path_1137" data-name="Path 1137" d="M980.542,825.584H900.793v-8.129h79.749Zm-78.229-1.52h76.709v-5.089H902.313Z" fill="#003359"/>
                  <path id="Path_1138" data-name="Path 1138" d="M980.542,839.822H900.793v-8.13h79.749ZM902.313,838.3h76.709v-5.089H902.313Z" fill="#003359"/>
                </g>
              </g>
              <g id="Group_1161" data-name="Group 1161">
                <rect id="Rectangle_970" data-name="Rectangle 970" width="186.208" height="64.603" transform="translate(810.284 713.405)" fill="#5896fa"/>
                <rect id="Rectangle_971" data-name="Rectangle 971" width="170.536" height="10.043" transform="translate(818.119 703.362)" fill="#003359"/>
                <circle id="Ellipse_274" data-name="Ellipse 274" cx="4.886" cy="4.886" r="4.886" transform="translate(830.586 741.988)" fill="#fff"/>
                <path id="Path_1139" data-name="Path 1139" d="M858.189,752.52a5.647,5.647,0,1,1,5.647-5.647A5.653,5.653,0,0,1,858.189,752.52Zm0-9.772a4.126,4.126,0,1,0,4.127,4.125A4.13,4.13,0,0,0,858.189,742.748Z" fill="#003359"/>
                <g id="Group_1160" data-name="Group 1160">
                  <path id="Path_1140" data-name="Path 1140" d="M980.542,736.7H900.793v-8.131h79.749Zm-78.229-1.521h76.709v-5.089H902.313Z" fill="#003359"/>
                  <path id="Path_1141" data-name="Path 1141" d="M980.542,750.938H900.793v-8.129h79.749Zm-78.229-1.52h76.709v-5.089H902.313Z" fill="#003359"/>
                  <path id="Path_1142" data-name="Path 1142" d="M980.542,765.176H900.793v-8.131h79.749Zm-78.229-1.521h76.709v-5.089H902.313Z" fill="#003359"/>
                </g>
              </g>
              <g id="Group_1163" data-name="Group 1163">
                <rect id="Rectangle_972" data-name="Rectangle 972" width="186.208" height="64.603" transform="translate(810.284 638.759)" fill="#5896fa"/>
                <rect id="Rectangle_973" data-name="Rectangle 973" width="170.536" height="10.043" transform="translate(818.119 628.716)" fill="#003359"/>
                <path id="Path_1143" data-name="Path 1143" d="M840.358,672.228a4.886,4.886,0,1,1-4.886-4.886A4.887,4.887,0,0,1,840.358,672.228Z" fill="#fff"/>
                <path id="Path_1144" data-name="Path 1144" d="M858.189,677.874a5.646,5.646,0,1,1,5.647-5.646A5.652,5.652,0,0,1,858.189,677.874Zm0-9.772a4.126,4.126,0,1,0,4.127,4.126A4.131,4.131,0,0,0,858.189,668.1Z" fill="#003359"/>
                <g id="Group_1162" data-name="Group 1162">
                  <path id="Path_1145" data-name="Path 1145" d="M980.542,662.055H900.793v-8.129h79.749Zm-78.229-1.52h76.709v-5.089H902.313Z" fill="#003359"/>
                  <path id="Path_1146" data-name="Path 1146" d="M980.542,676.293H900.793v-8.131h79.749Zm-78.229-1.521h76.709v-5.089H902.313Z" fill="#003359"/>
                  <path id="Path_1147" data-name="Path 1147" d="M980.542,690.529H900.793V682.4h79.749Zm-78.229-1.52h76.709V683.92H902.313Z" fill="#003359"/>
                </g>
              </g>
            </g>
          </g>
        </g>
      </g>
      <g id="Group_1170" data-name="Group 1170">
        <rect id="Rectangle_974" data-name="Rectangle 974" width="238.315" height="165.405" rx="6.228" transform="translate(797.971 178.142)" fill="#005cea"/>
        <rect id="Rectangle_975" data-name="Rectangle 975" width="45.197" height="32.485" rx="5.129" transform="translate(967.26 268.663)" fill="#5896fa"/>
        <rect id="Rectangle_976" data-name="Rectangle 976" width="54.399" height="60.399" rx="5.129" transform="translate(812.703 200.445)" fill="#5896fa"/>
        <g id="Group_1169" data-name="Group 1169">
          <g id="Group_1168" data-name="Group 1168">
            <path id="Path_1148" data-name="Path 1148" d="M839.962,229.162A11.635,11.635,0,0,0,849,224.736a11.343,11.343,0,0,0,2.489-7.192,11.573,11.573,0,1,0-23.145,0,11.326,11.326,0,0,0,2.49,7.192A11.674,11.674,0,0,0,839.962,229.162Z" fill="#005cea"/>
          </g>
          <path id="Path_1149" data-name="Path 1149" d="M860.378,249.866c0,7.332-40.945,7.332-40.945,0l.013-8.545c1.618-11.68,37.6-12.171,40.939,0Z" fill="#005cea"/>
        </g>
        <path id="Path_1150" data-name="Path 1150" d="M883.289,209.581h0a4.133,4.133,0,0,1,4.133-4.134h114.252a4.134,4.134,0,0,1,4.134,4.134h0a4.134,4.134,0,0,1-4.134,4.133H887.422A4.133,4.133,0,0,1,883.289,209.581Z" fill="#fff"/>
        <path id="Path_1151" data-name="Path 1151" d="M883.289,233.774h0a4.133,4.133,0,0,1,4.133-4.134h114.252a4.134,4.134,0,0,1,4.134,4.134h0a4.133,4.133,0,0,1-4.134,4.133H887.422A4.132,4.132,0,0,1,883.289,233.774Z" fill="#fff"/>
      </g>
      <circle id="Ellipse_275" data-name="Ellipse 275" cx="23.855" cy="23.855" r="23.855" transform="translate(729.951 487.5) rotate(-80.25)" fill="#aae0ff"/>
      <circle id="Ellipse_276" data-name="Ellipse 276" cx="12.48" cy="12.48" r="12.48" transform="translate(1550.41 740.486)" fill="#fff"/>
      <circle id="Ellipse_277" data-name="Ellipse 277" cx="12.48" cy="12.48" r="12.48" transform="translate(241.782 785.666) rotate(-76.789)" fill="#aae0ff"/>
      <circle id="Ellipse_278" data-name="Ellipse 278" cx="23.855" cy="23.855" r="23.855" transform="translate(420.173 1220.044) rotate(-25.745)" fill="#aae0ff"/>
      <g id="Group_1171" data-name="Group 1171">
        <path id="Path_1152" data-name="Path 1152" d="M681.544,208.535h0a4.134,4.134,0,0,1-4.134-4.133V160.149a4.133,4.133,0,0,1,4.134-4.133h0a4.133,4.133,0,0,1,4.133,4.133V204.4A4.134,4.134,0,0,1,681.544,208.535Z" fill="#aae0ff"/>
        <path id="Path_1153" data-name="Path 1153" d="M655.284,182.275h0a4.134,4.134,0,0,1,4.133-4.133H703.67a4.133,4.133,0,0,1,4.133,4.133h0a4.133,4.133,0,0,1-4.133,4.134H659.417A4.134,4.134,0,0,1,655.284,182.275Z" fill="#aae0ff"/>
      </g>
      <g id="Group_1172" data-name="Group 1172">
        <path id="Path_1154" data-name="Path 1154" d="M1305.285,766.746h0a4.133,4.133,0,0,1-4.133-4.134V718.36a4.133,4.133,0,0,1,4.133-4.134h0a4.133,4.133,0,0,1,4.133,4.134v44.252A4.133,4.133,0,0,1,1305.285,766.746Z" fill="#fff"/>
        <path id="Path_1155" data-name="Path 1155" d="M1279.025,740.486h0a4.133,4.133,0,0,1,4.134-4.133h44.252a4.133,4.133,0,0,1,4.134,4.133h0a4.133,4.133,0,0,1-4.134,4.133h-44.252A4.133,4.133,0,0,1,1279.025,740.486Z" fill="#fff"/>
      </g>
      <g id="Group_1173" data-name="Group 1173">
        <path id="Path_1156" data-name="Path 1156" d="M1260.293,1349.6h0a4.133,4.133,0,0,1-4.134-4.133v-44.253a4.133,4.133,0,0,1,4.134-4.133h0a4.133,4.133,0,0,1,4.133,4.133v44.253A4.132,4.132,0,0,1,1260.293,1349.6Z" fill="#fff"/>
        <path id="Path_1157" data-name="Path 1157" d="M1234.033,1323.344h0a4.134,4.134,0,0,1,4.134-4.133h44.252a4.133,4.133,0,0,1,4.133,4.133h0a4.133,4.133,0,0,1-4.133,4.134h-44.252A4.134,4.134,0,0,1,1234.033,1323.344Z" fill="#fff"/>
      </g>
      <circle id="Ellipse_279" data-name="Ellipse 279" cx="13.231" cy="13.231" r="13.231" transform="translate(900.919 1006.062)" fill="none" stroke="#fff" stroke-miterlimit="10" stroke-width="4.226"/>
      <g id="Group_1178" data-name="Group 1178">
        <g id="Group_1174" data-name="Group 1174">
          <rect id="Rectangle_977" data-name="Rectangle 977" width="190.276" height="237.509" transform="translate(1245.414 411.707)" fill="#296acc"/>
        </g>
        <g id="Group_1177" data-name="Group 1177">
          <g id="Group_1175" data-name="Group 1175">
            <rect id="Rectangle_978" data-name="Rectangle 978" width="190.276" height="237.509" transform="translate(1266.943 435.914)" fill="#fff" stroke="#5896fa" stroke-miterlimit="10" stroke-width="6.341"/>
          </g>
          <g id="Group_1176" data-name="Group 1176">
            <rect id="Rectangle_979" data-name="Rectangle 979" width="190.276" height="237.509" transform="translate(1285.323 455.608)" fill="#5896fa"/>
            <rect id="Rectangle_980" data-name="Rectangle 980" width="98.424" height="15.447" transform="translate(1347.573 494.602)" fill="#005cea"/>
            <rect id="Rectangle_981" data-name="Rectangle 981" width="127.532" height="15.447" transform="translate(1318.465 530.894)" fill="#005cea"/>
            <rect id="Rectangle_982" data-name="Rectangle 982" width="127.532" height="15.447" transform="translate(1318.465 567.186)" fill="#005cea"/>
            <path id="Path_1158" data-name="Path 1158" d="M1337.858,669.025a268.838,268.838,0,0,0,40.3-39.388l-27.194,44.228q13.7-13.23,27.784-25.165l-4.758,16.818,11.422-9.358-3.3,12.3,39.057-15.662c5.2,3.915,11.031,5.135,16.6,3.471" fill="none" stroke="#fff" stroke-miterlimit="10" stroke-width="1"/>
          </g>
        </g>
      </g>
      <g id="Group_1180" data-name="Group 1180">
        <rect id="Rectangle_983" data-name="Rectangle 983" width="195.771" height="244.686" rx="10.623" transform="translate(368.483 408.118)" fill="#abc9f4"/>
        <g id="Group_1179" data-name="Group 1179">
          <rect id="Rectangle_984" data-name="Rectangle 984" width="98.424" height="15.447" transform="translate(442.541 449.769)" fill="#005cea"/>
          <rect id="Rectangle_985" data-name="Rectangle 985" width="127.532" height="15.447" transform="translate(413.433 486.061)" fill="#005cea"/>
          <rect id="Rectangle_986" data-name="Rectangle 986" width="127.532" height="15.447" transform="translate(413.433 522.353)" fill="#005cea"/>
          <rect id="Rectangle_987" data-name="Rectangle 987" width="127.532" height="15.447" transform="translate(413.433 558.645)" fill="#005cea"/>
        </g>
      </g>
      <circle id="Ellipse_280" data-name="Ellipse 280" cx="24.124" cy="24.124" r="24.124" transform="translate(490.25 590.511)" fill="#005cea"/>
      <path id="Path_1159" data-name="Path 1159" d="M504.181,622.255v43.477l10.193-7.368,10.193,7.463V622.255Z" fill="#005cea"/>
      <path id="Path_1160" data-name="Path 1160" d="M514.374,598.8l4.159,8.426,9.3,1.351-6.729,6.559,1.589,9.261-8.317-4.373-8.317,4.373,1.588-9.261-6.729-6.559,9.3-1.351Z" fill="#fff"/>
      <g id="Group_1140" data-name="Group 1140">
        <path id="Path_150" data-name="Path 150" d="M516.366,853.1v16.933c-27.921,22.752-107.752,87.8-123.947,100.995L309.188,907.3V853.1s40.209-16.835,103.589-16.835S516.366,853.1,516.366,853.1Z" fill="#44c19a"/>
        <path id="Path_151" data-name="Path 151" d="M392.431,1019.495c1.729-1.773,84.872-86.286,123.936-126.005v28.787c0,123.958-103.589,147.575-103.589,147.575s-99.421-22.669-103.463-140.142C333.57,955.913,389.342,1016.131,392.431,1019.495Z" fill="#298472"/>
        <g id="Group_121" data-name="Group 121">
          <path id="Path_152" data-name="Path 152" d="M392.43,1019.495Z" fill="#fff"/>
        </g>
      </g>
      <g id="Group_1183" data-name="Group 1183">
        <g id="Group_1182" data-name="Group 1182">
          <g id="Group_1181" data-name="Group 1181">
            <path id="Path_1161" data-name="Path 1161" d="M371.249,884.6v32.425c0,3.609,44.084,3.609,44.084,0V884.6Zm24.272,17.219v9.19a2.23,2.23,0,1,1-4.46,0V901.8a5.423,5.423,0,1,1,4.46.021Z" fill="#fff"/>
            <path id="Path_1162" data-name="Path 1162" d="M411.474,882.29h-4.462v-2.183a13.719,13.719,0,1,0-27.439,0v2.183h-4.462v-2.183a18.182,18.182,0,1,1,36.363,0Z" fill="#fff"/>
          </g>
        </g>
      </g>
      <g id="Group_1198" data-name="Group 1198">
        <g id="Group_1186" data-name="Group 1186">
          <path id="Path_1163" data-name="Path 1163" d="M1217.165,2231.32h-51.778l-5.354-112.576h62.487Z" fill="#0e0e0e"/>
          <path id="Path_1164" data-name="Path 1164" d="M2117.037,2231.32h-51.778l-5.354-112.576h62.487Z" fill="#0e0e0e"/>
          <path id="Path_1165" data-name="Path 1165" d="M2071.9,1923.347q-8.558,26.556-18.733,54.51H1193.608s-110.93-451.509,0-534.082a73.292,73.292,0,0,1,10.211-6.22c149.4-76.77,748.405-94.793,870.012,3.967.93.735,1.787,1.494,2.62,2.253C2121.264,1484.915,2160.224,1649.106,2071.9,1923.347Z" fill="url(#linear-gradient-2)"/>
          <path id="Path_1166" data-name="Path 1166" d="M1517.681,1977.857H1193.8l31.583-316.451C1281.863,1685.914,1432.22,1815.3,1517.681,1977.857Z" fill="url(#linear-gradient-3)"/>
          <path id="Path_1167" data-name="Path 1167" d="M2071.9,1923.347q-8.558,26.556-18.733,54.51h-312.2c53.689-99.572,183.877-250.392,310.3-319.817Z" fill="url(#linear-gradient-3)"/>
          <path id="Path_1168" data-name="Path 1168" d="M2179.6,1656.978H2060.433a39.934,39.934,0,0,0-39.589,34.7l-38.006,287.38H1286.361l-38.005-287.38a39.934,39.934,0,0,0-39.589-34.7H1089.595a39.933,39.933,0,0,0-39.312,46.948l66.162,478.58h1036.31l66.162-478.58A39.933,39.933,0,0,0,2179.6,1656.978Z" fill="url(#linear-gradient-5)"/>
          <g id="Group_1185" data-name="Group 1185">
            <g id="Group_1184" data-name="Group 1184">
              <path id="Path_1169" data-name="Path 1169" d="M1975.893,1822.087c56.081,18.773,45.145,137.508,0,155.768H1295.569c-50.808-13.112-55.1-170.179,18.175-158.363C1762.185,1903.809,1783.913,1769.3,1975.893,1822.087Z" fill="url(#linear-gradient-3)"/>
            </g>
          </g>
        </g>
        <g id="Group_1197" data-name="Group 1197">
          <path id="Path_1170" data-name="Path 1170" d="M1457.359,1701.732a630.463,630.463,0,0,0,4.738,84.794h319l18.891-311.481c-18.952-113.772-70.824-141.344-152.928-141.344-73.484,0-122.423,59.943-152.165,140.182C1469.189,1543.21,1457.818,1627.667,1457.359,1701.732Z" fill="#007880"/>
          <path id="Path_1171" data-name="Path 1171" d="M1457.359,1707.746l115.44-6.948c-64.087-20.982-69.188-119.343-4.037-180.545l-73.866-46.37C1469.189,1543.21,1457.818,1633.681,1457.359,1707.746Z" fill="#005459"/>
          <path id="Path_1172" data-name="Path 1172" d="M1435.388,1850.894h438.28V1701.742h-394.8Z" fill="#0e0e0e"/>
          <g id="Group_1189" data-name="Group 1189">
            <g id="Group_1187" data-name="Group 1187">
              <path id="Path_1173" data-name="Path 1173" d="M1929.663,1803.565,1811.939,2231.32h-91.795c29.06-182.026,22.551-300.357,49.889-451.508C1794.01,1655.737,1958.2,1688.576,1929.663,1803.565Z" fill="#0e0e0e"/>
            </g>
            <g id="Group_1188" data-name="Group 1188">
              <path id="Path_1174" data-name="Path 1174" d="M1778.971,2231.32c0-.282-.021-.562-.021-.845a57.417,57.417,0,1,1,114.833,0c0,.283-.017.563-.021.845Z" fill="#2b388f"/>
              <path id="Path_1175" data-name="Path 1175" d="M1847.435,2174.129l-20.871-6.381c-13.776-27.1-72.53-23.744-64.346,9.237-23.054,3.434-35.181-8.049-35.181-8.049l-6.893,62.384h124.48Z" fill="#2b388f"/>
            </g>
          </g>
          <g id="Group_1192" data-name="Group 1192">
            <g id="Group_1190" data-name="Group 1190">
              <path id="Path_1176" data-name="Path 1176" d="M1412.744,1803.565l117.725,427.755h91.8c-29.061-182.026-22.552-300.357-49.889-451.508C1548.4,1655.737,1384.2,1688.576,1412.744,1803.565Z" fill="#0e0e0e"/>
            </g>
            <g id="Group_1191" data-name="Group 1191">
              <path id="Path_1177" data-name="Path 1177" d="M1563.436,2231.32c0-.282.022-.562.022-.845a57.417,57.417,0,0,0-114.834,0c0,.283.017.563.022.845Z" fill="#2e3191"/>
              <path id="Path_1178" data-name="Path 1178" d="M1494.973,2174.129l20.871-6.381c13.775-27.1,72.529-23.744,64.346,9.237,23.054,3.434,35.181-8.049,35.181-8.049l6.893,62.384H1497.783Z" fill="#2b388f"/>
            </g>
          </g>
          <path id="Path_1179" data-name="Path 1179" d="M1597.9,1343.708c43.053,26.134,49.19,103.724,27.116,134.635l-122.851,91.52,125.079,64.408-20.32,66.527s-130.554-10.624-194.46-76.175C1351.109,1561.685,1500.7,1376.805,1597.9,1343.708Z" fill="#007880"/>
          <path id="Path_1180" data-name="Path 1180" d="M1685.242,1461.407c-36.827-46.244-11.393-117.7,35.551-115.6,152.875,53.818,200.063,203.25,151.634,270.33-41.492,57.472-224.012,79.6-224.012,79.6v-62.921l126.816-27.4S1709.844,1504.106,1685.242,1461.407Z" fill="#007880"/>
          <g id="Group_1194" data-name="Group 1194">
            <path id="Path_1181" data-name="Path 1181" d="M1551.284,1679.783c-2.373-21.072,9.957-47.421,41.669-53.178,55.385-10.055,75.436,20.333,80.673,42.059,1.364,5.658-3.785,11.645-8.54,11.119s-8.1-3.213-8.916-7.523c-.982-5.19-3.735-11.612-9.666-14.96,5.724,11.22,3.333,22.483-12.26,22.483Z" fill="#f7a594"/>
            <g id="Group_1193" data-name="Group 1193">
              <path id="Path_1182" data-name="Path 1182" d="M1676.341,1679.728l43.585-218.56h9.242c-2.952,15.053-45.832,233.743-47.172,240.574h-130.63l-14.268-22.014Z" fill="#ccd5e2"/>
              <path id="Path_1183" data-name="Path 1183" d="M1729.168,1461.168h324.349l-47.975,240.574H1682Z" fill="#fff"/>
            </g>
          </g>
          <g id="Group_1196" data-name="Group 1196">
            <g id="Group_1195" data-name="Group 1195">
              <path id="Path_1184" data-name="Path 1184" d="M1634.6,1359.375c0,24.87,74.551,41.362,98.92,15.223a27.561,27.561,0,0,0,7.2-14.751l14.043-62.986-89.036-33.573-2.655,8.231Z" fill="#f7a594"/>
              <path id="Path_1185" data-name="Path 1185" d="M1740.718,1359.847l14.043-62.986-84.236-22.682C1648.719,1339.074,1726.529,1390.917,1740.718,1359.847Z" fill="#f4856d"/>
            </g>
            <path id="Path_1186" data-name="Path 1186" d="M1659.141,1239.089c-4.688,61.909,44.236,116.431,85.288,119.2s97.575-43.087,102.262-105-33.5-115.275-85.288-119.2S1663.828,1177.18,1659.141,1239.089Z" fill="#f7a594"/>
            <path id="Path_1187" data-name="Path 1187" d="M1727.779,1138.78c56.766-35.949,88.012-2.141,116.277,33.716,19.835,25.165,33.885,43.245,58.572,47.028-47.487,59.9-142.461,20.385-172.383-39.638-2.945,34.168-43.219,62.468-71.1,59.2C1650.107,1201.068,1676.441,1124.208,1727.779,1138.78Z" fill="#0e0e0e"/>
            <circle id="Ellipse_281" data-name="Ellipse 281" cx="24.709" cy="24.709" r="24.709" transform="translate(1641.624 1219.477) rotate(-9.217)" fill="#f7a594"/>
          </g>
        </g>
      </g>
      <text id="CERTIX" transform="matrix(0.999, -0.035, 0.035, 0.999, 1784.025, 1589.483)" fill="#14996d" font-size="47" font-family="Arial-Black, Arial Black" font-weight="800"><tspan x="0" y="0">CERTIX</tspan></text>
      <path id="Path_1188" data-name="Path 1188" d="M309.188,907.3l.128,22.406L392.43,1019.5,516.367,893.49V870.034l-123.947,101" fill="#fff"/>
    </g>
  </g>
</svg>
