<?xml version="1.0" standalone="no"?>
<!DOCTYPE svg PUBLIC "-//W3C//DTD SVG 20010904//EN"
 "http://www.w3.org/TR/2001/REC-SVG-20010904/DTD/svg10.dtd">
<svg version="1.0" xmlns="http://www.w3.org/2000/svg"
 width="832.000000pt" height="832.000000pt" viewBox="0 0 832.000000 832.000000"
 preserveAspectRatio="xMidYMid meet">
<metadata>
Created by potrace 1.14, written by Peter Selinger 2001-2017
</metadata>
<g transform="translate(0.000000,832.000000) scale(0.100000,-0.100000)"
fill="#000000" stroke="none">
<path d="M4123 8305 c-18 -8 -33 -11 -33 -7 0 4 -4 2 -8 -3 -4 -6 -23 -16 -42
-22 -19 -6 -93 -34 -165 -63 -71 -28 -134 -52 -140 -54 -5 -2 -21 -7 -35 -13
-14 -6 -68 -26 -120 -46 -52 -20 -149 -57 -215 -82 -66 -26 -136 -52 -155 -58
-19 -6 -38 -16 -42 -22 -4 -5 -8 -7 -8 -3 0 4 -26 -5 -57 -19 -32 -14 -58 -24
-58 -23 0 2 1 2 -375 -142 -173 -67 -342 -131 -375 -143 -33 -13 -231 -89
-440 -170 -209 -80 -384 -147 -390 -148 -5 -2 -14 -5 -20 -8 -5 -4 -28 -12
-50 -19 -22 -7 -44 -16 -50 -20 -12 -9 -107 -40 -119 -39 -5 0 -12 -3 -15 -8
-6 -9 -108 -50 -143 -58 -9 -2 -25 -8 -36 -14 -11 -6 -22 -7 -26 -4 -3 3 -6 2
-6 -4 0 -6 -26 -18 -58 -28 -31 -10 -61 -21 -67 -25 -5 -4 -21 -11 -35 -15
-14 -4 -60 -21 -102 -37 l-76 -30 -4 -77 c-5 -118 0 -1127 6 -1211 3 -41 8
-106 11 -145 3 -38 8 -99 10 -135 11 -145 14 -176 19 -210 3 -19 8 -64 12
-100 3 -36 8 -76 10 -90 1 -14 5 -47 8 -75 3 -27 7 -61 10 -75 2 -14 10 -59
16 -100 14 -89 16 -104 24 -150 3 -19 8 -48 11 -65 2 -16 7 -43 11 -60 3 -16
14 -75 25 -130 11 -55 22 -111 25 -125 3 -14 8 -38 11 -55 7 -39 9 -47 15 -65
3 -8 16 -58 28 -110 37 -159 140 -513 177 -610 4 -8 7 -18 8 -22 2 -5 3 -9 5
-10 1 -2 3 -10 5 -18 5 -20 44 -129 55 -155 5 -11 26 -63 46 -115 84 -221 273
-620 373 -788 17 -29 31 -57 31 -62 0 -6 3 -10 8 -10 4 0 13 -12 19 -27 13
-30 75 -130 93 -150 5 -7 10 -15 10 -18 0 -7 72 -116 88 -133 6 -7 12 -17 12
-22 0 -5 6 -15 13 -22 7 -7 21 -26 31 -43 24 -36 203 -277 242 -324 113 -135
208 -245 259 -298 33 -34 69 -72 81 -85 62 -70 287 -274 417 -378 11 -8 24
-19 31 -25 6 -5 38 -30 71 -55 33 -25 62 -48 63 -52 2 -5 10 -8 18 -8 8 0 14
-4 14 -10 0 -5 6 -10 14 -10 8 0 16 -4 18 -8 4 -11 185 -132 197 -132 5 0 11
-3 13 -8 10 -23 375 -220 529 -286 67 -29 224 -88 271 -102 35 -11 53 -12 75
-3 15 6 28 9 28 8 0 -1 19 8 43 20 23 12 42 19 42 17 0 -3 24 5 53 18 67 29
91 39 97 40 11 2 337 167 380 192 25 15 59 35 75 44 65 37 110 65 120 73 28
22 147 97 155 97 5 0 13 6 17 13 4 8 22 22 38 33 45 28 159 116 163 126 2 4 8
8 13 8 5 0 21 11 36 24 16 14 68 59 117 101 182 157 352 329 511 520 28 33 52
62 56 65 3 3 35 43 73 90 37 47 73 92 79 100 26 31 194 267 228 320 20 30 55
83 78 118 22 34 39 62 36 62 -4 0 5 15 19 33 15 19 26 36 26 39 0 3 18 37 40
74 23 38 45 76 50 84 4 8 28 53 51 100 24 47 48 88 54 92 5 4 7 8 3 8 -4 0 2
17 13 37 31 54 147 308 171 373 11 30 24 60 28 65 3 6 15 33 24 60 10 28 24
64 31 80 7 17 28 75 47 130 18 55 37 103 41 106 5 3 8 8 7 10 -2 3 11 50 72
249 11 35 15 51 16 60 0 3 5 17 11 33 6 15 13 38 15 50 2 12 11 48 21 80 20
70 105 425 104 435 -1 4 0 9 1 12 3 9 12 52 29 145 6 33 13 70 15 81 8 41 25
144 31 189 2 17 6 41 9 55 2 14 7 48 11 75 7 54 12 94 20 152 3 21 8 63 11 93
3 30 7 69 9 85 8 80 19 215 19 252 1 24 3 43 6 43 3 0 6 21 6 48 3 118 13 272
17 279 4 6 1 1088 -3 1154 -1 11 -27 26 -73 44 -121 46 -320 122 -459 176 -73
27 -142 54 -153 59 -11 5 -69 28 -130 50 -107 40 -228 87 -290 111 -16 7 -35
13 -42 15 -7 1 -27 9 -44 18 -18 9 -35 16 -39 16 -4 0 -25 8 -46 17 -22 9 -45
18 -52 19 -8 1 -30 10 -49 19 -20 10 -41 18 -47 20 -6 1 -20 6 -31 10 -33 13
-183 71 -300 115 -105 40 -127 48 -177 69 -23 10 -51 21 -278 106 -124 46
-149 56 -192 74 -13 6 -52 20 -88 32 -36 12 -69 26 -75 30 -5 4 -30 14 -55 22
-25 9 -121 46 -215 82 -93 37 -174 68 -180 69 -5 2 -23 8 -40 15 -16 7 -95 37
-175 67 -80 30 -154 59 -165 64 -28 12 -105 40 -108 40 -1 -1 -17 -7 -34 -15z
m207 -1501 c80 -30 154 -59 165 -64 11 -5 52 -20 90 -34 39 -14 95 -34 125
-46 30 -12 69 -26 85 -32 49 -17 158 -58 180 -68 11 -5 45 -18 75 -28 57 -20
690 -257 725 -272 11 -4 47 -18 80 -30 33 -12 69 -26 80 -30 69 -29 343 -130
353 -130 18 0 24 -18 29 -88 14 -197 -5 -701 -32 -844 -2 -9 -6 -44 -10 -77
-3 -33 -8 -70 -11 -83 -3 -13 -7 -41 -9 -63 -3 -22 -7 -51 -10 -65 -3 -14 -8
-38 -10 -55 -3 -16 -15 -77 -26 -135 -12 -58 -23 -116 -25 -130 -3 -14 -10
-43 -16 -65 -5 -22 -11 -47 -13 -55 -2 -8 -8 -35 -15 -60 -7 -25 -14 -56 -16
-70 -5 -25 -21 -83 -31 -110 -3 -8 -8 -24 -10 -35 -10 -58 -137 -441 -171
-519 -12 -25 -18 -46 -15 -46 3 0 0 -7 -7 -15 -7 -8 -9 -15 -5 -15 4 0 3 -6
-3 -13 -6 -6 -20 -37 -32 -66 -46 -117 -182 -393 -245 -499 -6 -9 -24 -39 -40
-67 -41 -70 -175 -270 -221 -332 -21 -28 -48 -64 -59 -79 -24 -33 -104 -132
-125 -154 -8 -9 -39 -44 -69 -78 -29 -35 -106 -115 -171 -180 -110 -110 -168
-163 -285 -262 -27 -23 -63 -53 -79 -66 -15 -13 -30 -24 -33 -24 -2 0 -11 -6
-18 -12 -41 -36 -115 -89 -230 -166 -55 -36 -103 -69 -106 -74 -3 -5 -12 -2
-19 7 -7 8 -16 15 -21 15 -12 0 -299 197 -319 220 -3 3 -25 21 -50 39 -25 19
-49 40 -55 46 -5 6 -21 18 -33 27 -34 23 -191 168 -286 264 -131 131 -207 217
-316 354 -28 36 -56 72 -63 80 -7 8 -28 38 -47 65 -19 28 -37 52 -40 55 -17
17 -90 130 -90 139 0 6 -4 11 -10 11 -5 0 -10 4 -10 9 0 6 -13 30 -30 54 -16
25 -30 50 -30 56 0 6 -4 11 -9 11 -5 0 -11 8 -14 18 -4 9 -18 37 -33 62 -49
83 -190 365 -199 400 -1 3 -6 16 -12 30 -24 57 -112 300 -132 365 -13 39 -26
79 -30 90 -8 20 -42 130 -45 150 -2 5 -12 42 -24 80 -35 118 -118 468 -138
585 -2 14 -7 36 -11 50 -3 14 -6 28 -5 32 1 4 -3 31 -9 60 -5 29 -12 71 -15
93 -3 22 -7 47 -9 55 -3 8 -7 42 -11 74 -3 33 -8 69 -10 80 -3 12 -7 48 -9 81
-3 33 -7 76 -10 95 -3 20 -7 67 -10 105 -3 39 -8 99 -11 135 -3 36 -6 70 -6
75 1 24 1 60 -1 234 -2 155 0 185 13 192 8 4 78 31 155 60 77 28 174 64 215
80 41 15 107 39 145 54 39 15 81 30 95 35 14 5 79 29 145 55 66 26 125 48 130
49 6 2 24 8 40 15 17 7 46 18 65 25 19 7 98 36 175 65 77 29 160 60 185 68 25
9 50 20 55 24 6 4 26 12 45 17 19 6 71 25 115 42 44 17 85 33 90 34 6 2 21 8
35 13 14 6 57 22 95 36 76 28 155 58 280 105 44 17 87 29 95 26 8 -3 80 -30
160 -60z"/>
</g>
</svg>
